/* XPM */
static char *f6c4cab027ce40d2b7e539b291d88defvRuDrw3BcLegTrwm[] = {
/* columns rows colors chars-per-pixel */
"63 64 126 2 ",
"   c #010101",
".  c #080207",
"X  c #010C01",
"o  c #080C07",
"O  c #0B030A",
"+  c #0B0B0A",
"@  c #10040F",
"#  c #100A0F",
"$  c #011301",
"%  c #081407",
"&  c #011C01",
"*  c #081D07",
"=  c #0B130A",
"-  c #0B1B0A",
";  c #10140E",
":  c #111B0F",
">  c #130312",
",  c #190517",
"<  c #170815",
"1  c #190B17",
"2  c #1D051A",
"3  c #1C0C19",
"4  c #121610",
"5  c #191317",
"6  c #141C12",
"7  c #1D131A",
"8  c #21051E",
"9  c #200E1D",
"0  c #21101E",
"q  c #012301",
"w  c #082207",
"e  c #012C01",
"r  c #082A07",
"t  c #0B230A",
"y  c #0B2B0A",
"u  c #013401",
"i  c #083407",
"p  c #013B01",
"a  c #083B07",
"s  c #0C330B",
"d  c #0C3C0A",
"f  c #10340E",
"g  c #103F0D",
"h  c #132411",
"j  c #162A14",
"k  c #143412",
"l  c #1A3417",
"z  c #163C13",
"x  c #1F371C",
"c  c #1E3D1B",
"v  c #213C1E",
"b  c #260623",
"n  c #2A0726",
"m  c #241021",
"M  c #281125",
"N  c #33152E",
"B  c #32252E",
"V  c #353C30",
"C  c #014301",
"Z  c #084407",
"A  c #014B01",
"S  c #004E00",
"D  c #034D02",
"F  c #084A07",
"G  c #0D440B",
"H  c #0A4B09",
"J  c #0B4E0A",
"K  c #10410E",
"L  c #11490E",
"P  c #005300",
"I  c #025102",
"U  c #005500",
"Y  c #025401",
"T  c #055204",
"R  c #045604",
"E  c #065406",
"W  c #085407",
"Q  c #005800",
"!  c #025902",
"~  c #045A03",
"^  c #005D00",
"/  c #035F03",
"(  c #045D03",
")  c #055A05",
"_  c #085A06",
"`  c #0A5409",
"'  c #095608",
"]  c #0A5A09",
"[  c #095E08",
"{  c #11530E",
"}  c #124510",
"|  c #1A4617",
" . c #134C10",
".. c #1E4B1A",
"X. c #006200",
"o. c DarkGreen",
"O. c #046403",
"+. c #046603",
"@. c #066005",
"#. c #066105",
"$. c #086307",
"%. c #006B00",
"&. c #036903",
"*. c #006D00",
"=. c #036E02",
"-. c #056804",
";. c #066805",
":. c #086A07",
">. c #0C650B",
",. c #0C670A",
"<. c #0A6A09",
"1. c #007100",
"2. c #007600",
"3. c #027702",
"4. c #047304",
"5. c #007B00",
"6. c #017B01",
"7. c #007C00",
"8. c #047804",
"9. c #077806",
"0. c #127A0E",
"q. c #146211",
"w. c #146A11",
"e. c #008000",
"r. c #018301",
"t. c #008A00",
/* pixels */
"X o.5.1.o.u     P *.p S X.e u C 2.^ P S $ u 1.5.( F u   $ ( :.= > R _ %.$ $ F &   o.1.e Q & q Q X.C p S & u C 7.U X & 1.e   Q ",
"  u S o.1.e     P %.u S ^ q u C 2.^ U P $ y *.2.) P e   % -.^ + O ` ,.-.+ $ C & X %.*.q U & & P *.S u p & u p 7.Q X & 1.q   Q ",
"      e 5.q     Q o.s S Q & p A 2.Q ^ U $ e *.2.U U r @ = $.H > > O.9.) + $ A & o *.*.t U & & S 2.P q u $ p u 5.^ $ & 1.q X X.",
"e     X %.e     ^ ^ q S Q q p Q 1.P ^ Q $ q 1.1.A Q t O % *.z O > $.8.P X $ A $ $ 2.X.& U $ X p 5.U & e $ u u 2.^ $ & 1.q X o.",
"S       X.e     o.^ q S U q p o.%.C ^ U X e 4.*.C ^ B 8 o %.i   O $.-.Z $ $ C & $ 8.( $ U & $ e 5.Q $ u q u e 2.o.& & 1.e X o.",
"P       U e   X *.S q S S & C 1.Q u $.O.q C 4.=.p +.= . o X.i O O ^ T u & % A $ $ 5.U $ U e A u 7.^ X u q u e *.%.& & 1.C p %.",
"S       P u   $ 1.A e S S q S 5.S & Q 2.S R 2.*.p +.* . o -.a t O U a e q $ C & & 7.S $ Q S %.P e.^   p q e q %.*.q & 1.Q U *.",
"C   X X P p   & 1.A e P *.Q ^ 5.u X R 5.P U 7.=.u -.* . X %.p p O P i e ) P Z = q 7.C & ^ U %.S 5.%.e 1.p e & X.1.q & 1.^ Q o.",
"C   S q U p   q 2.S u ^ 7.5.7.2.& > S 5.C p 8.1.p -.& . o o.a a X S e e 2.*.H o u 5.p $ Q ^ X.A *.5.1.e.X.e $ U 2.e & 1.^ Q X.",
"p X X.e U C   e 2.A u %.1.2.e.%.X . i 5.q & 1.2.F $.& . $ %.k a o ^ Z e 8.r.F . u 2.p $ U ^ P e Q 2.5.5.*.p X S 5.e $ 1.X.Q X.",
"S X Q e U C   u 2.A p *.p U e.U     $ %.& $ 1.2.T +.& O & :.e u i ` P e 5.r.F . a 2.p $ P Q A   & 2.1.C *.p X C 5.e X o.+.^ %.",
"%.e P u U C   u 2.A C *.q q o.$     $ o.& % -.2.U O.%   r %.i p u & ( p 8.r.C . u *.p $ S ^ C     p p & %.C X S 5.e   Q X.^ *.",
"p Q Q u P C X q 2.P A %.& & p       X X.w % +.2.*.) X . r X.u C $ . D ~ =.e.p . p %.C $ C ^ u         X ^ C X U 1.e   P X.^ 1.",
"  u *.p S A X $ *.Q A %.& q u     .   ^ e 5 q.2.1.R X   e ^ e p . . e *.8.r.a   u %.p $ C X.e           U C X U *.q   C -.X.^ ",
"  X o.p A S X $ *.^ S o.& q u   . .   U e = ' 5.7.F O . a ( r e     X O.5.r.d . u ^ C $ C Q $           P S X ^ %.q   a -.o.p ",
"    P C C S $ X o.X.S X.& q u   .     U u o C 8.7.C     p R y e . . O Z e.e.i   e P C $ C P X           C C X X.X.&   i :.o.u ",
"    X.C p A $   Q o.S Q $ e e   .   & P u % p 1.e.p     C S w C   . . * 7.t.u . e C p $ A U     $ q     p p X X.U q   r +.o.q ",
"  $ %.p p S &   A o.A S & u r   $ $ p P C $ e %.e.u .   S C = 4.u . . > o.e.u   e A u X C U     u u     C p X X.A &   r 1.%.$ ",
"  & *.e u P $   p %.p p q p & $ U & C P A & & U e.u .   P Z & 8.Q . . O Q t.u   e P u X A P     P S     C p X ^ C $ O q 2.o.$ ",
"  & %.q e P $   p o.u q e u & r %.& Z T P w = u 7.u     P a & *.*.o . . R t.u   q Q p   C S X   ^ ^     A u X Q A $   & 1.o.X ",
"  q %.q e P $   C ^ u q p p $ p %.$ p U U e o & 5.p     U Z % o.*.% .   S t.u   & ^ C   C A X   X.*.X   A e   Q U o   $ 8.o.X ",
"  & %.q e U $   C X.e & p p X S X.X p S Q e X $ 1.u     P H % X.1.& . . C e.q   X X.C X p p X X ^ 5.$ X A q   Q S + O ; 8.Q   ",
"X q %.q e Q &   p X.e $ C p X ~ U + p A ^ e o $ *.C     S C $ X.5.e     C e.&   X o.p   e p X X Q 7.& X A q   ^ A + > 7 9.S   ",
"C p X.q u Q $   A ^ q $ C p X Q S   a C X.u   X o.S     P p $ X.5.u .   p 7.&   X o.p   e p X X Q e.q $ C q   U T # > 7 4.C   ",
"Q A Q q e Q &   Q U q X C p   Q C   u p ^ u     o.Q     P C X o.2.p     p 2.$     o.u   e u X X P 5.q X C &   S _ M 8 5 1.p   ",
"%.A ^ & e Q & X X.S & X C u X U S   u a U u   X ^ ^ X   U p + +.1.p     u 2.$   X o.u   e u X X P 5.e $ p &   Z ,.m , 3 <.p   ",
"1.C U q e Q & & ^ C & X C u   U ^   u e U u     U ^ &   U u X o.*.C X   u 1.$   X %.q   e e X X A *.C u u &   u w.N > 9 $.u   ",
"5.p S q e Q & q ^ p & X C u   S X.& X.e P p X   S X.q   Q e X o.+.C X   p *.X   X %.&   e u u p A %.p p p & . q <.9 , 9 $.u   ",
"2.e C e e Q & p S p & X A e   S ( q 1.e T C X   S ^ e   U u X o.U C X   u *.X   $ 1.&   e e C P C %.p p u & . & <.4 > 3 o.u   ",
"2.e C e e U q A C u $ X P e   A ^ q 1.q A A     S U p   Q u X o.C C $   u 1.$   q 1.&   e e A S C %.u p u q . = 4.t 2 7 $.e   ",
"2.q p p p S e Q u u $ X U e   p ^ & %.$ A A     C S p X ^ u X ^ e S $   u 1.$   e 1.&   e e A C u X.u u u q   = 1.s , + o.e   ",
"1.q u C C A r X.q p $ X P e   e ^ q X.$ C P     C A p $ Q p $ U & C $   u *.$   u 2.&   u e p C u P i r u q O % -.C > % o.e   ",
"1.& e u U G p ^ $ p $ X S e   & ^ e o.X C S X   p A p q ^ p e P $ C X   u 1.$   C 1.q   p e e A u A i q u r   o +.U . % X.u   ",
"%.& e q >.| S ^ X p $ $ A e   & ^ C X.X C C X   p C u q Q C C p $ C $   p 1.&   S 2.&   p e e P u S a * u r . + ) $.+ % o.u   ",
"o.& q $ o.C R P   p $ & p u   & ^ U Q   A p $   C C e e ^ U U e & p $   C 1.&   P 1.&   C u & U u D a % a r + o D :.% & o.u   ",
"^ u q X X.A O.Z . p X e u u   $ ^ o.P X P e q   C p q e Q *.P $ e u $   C *.&   U 7.$   S e X U a S s + a i + O F *.$ & %.u   ",
"Q C & X o.P ^ u   p & C q u X X Q *.C X U & e   C p q q Q 5.e   u p X   C %.$   U 2.X   P &   P C J s > d Z O O Z %.$ q $.u   ",
"X.P X $ X.A R p   p q S X u X X P 1.C $ U X e $ C p q & ^ 1.$   e C $   A X.$   ^ *.X X S +   A ` ` t @ h ] + O a o.X $ $.p   ",
"*.^ $ & ( C S p O i C C X u $ X U *.u & P   & q A p q & ^ %.$   e C $   S o.&   X.^   $ A   . u -.] 6 > ; ] % . e %.+ 6 -.u   ",
"2.P u q U u A p . u ) a = y &   Q %.u q C $ $ q P u u & ^ ^ & u C C $   C o.q X %.^   & A . . t 4.` 3 > , Z & O r %.$ w <.u   ",
"o.p p u P e p ^ $ u Q u e * w   Q U u e u e e e ^ U C $ Q U q U C p $   C o.q X 1.%.q e C . @ + $.J 1 > @ d r > Z *.$ q :.u   ",
"P e p p A q u %.+.C P e y & q X U p u u e S C e o.^ p X U A e X.p u $   C X.e $ 2.%.C u C . . O $.} 2 , , d p u 2.*.& s <.e   ",
"p q C A C q u ^ 8.*.F r u $ e X U & u C q U p e 1.^ e X U C p %.u e &   p X.e q 2.X.D A p @ O 2 ..c n 8 @ y D +.7.o.t v X.e   ",
"p & C U u & y p 2.8.D w u $ i X C X e A & U p e 5.P X   U u C *.e e &   p ^ e e 2.C Z A a , O 8 V v n , > f $.2.4.U r z %.e   ",
"p & C ^ e & r $ ( e.H - u $ p o C X u U & ^ e e 2.e   X U e A 1.e e & $ A X.e u 4.& e C a < O , l v b 2 2 y +.8.C C y p %.e   ",
"p $ A X.& $ u   $ *.D $ a % p & C   a X.& ^ q q 1.$   $ U & A 1.q e & e U %.u u 2.= o Z i 3 O b x d 8 3 2 r %.C X S r p %.p u ",
"u $ S o.$ X u   . P ' $ p = p q p . p o.& X.& e *.$   $ P X S 2.q u A p U -.e p 1.$ . p g , 8 8 v } 8 , O r ( q X C e C %.P ^ ",
"C $ P ^ X X u   O u R o a : a e p   p %.q X.$ u o.X   & A X A 2.& p 5.P U %.u Z 1.$ . r G 3 2 , f G 2 O O y U X   C u C %.P *.",
"C $ U Q   X u     q ' O u t d u e . p %.r Q X p X.X   q C   C 5.& p 7.U P %.u A *.X . * H 3 @ @ j L 2 O O u p     C u A %.S 2.",
"C $ U U     u o   & ] + t s d e e   C o.F p   C ^     e p   C 5.q C 5.U S o.p A *.% . = J 3 > , l K > . O p i   X p u S %.C 1.",
"A $ U S     u $ . $ ( + = i g k e . a %.S q X S U & X u u   u 1.& C 5.U S o.p S 8.u X o ' + @ @ k Z O . $ P q   $ p u P o.A 1.",
"S $ U C     r C u o ^ & + d  .z r . u 1.U X X U P u & u e   u %.& C 5.U S o.p P 7.F % + ] s @ O i Z . . u X.&   P S u Q o.C 1.",
"S $ P p     e C A X ^ q . d  .G t . r 5.^   $ U S u & p q   e %.q A 2.U S %.p A 2.F & + -.) O O r Z o   u o.& $ o.P u ^ o.p 1.",
"P & P p     q p S o ~ t . y H J t > e 5.S   $ ( S u $ C &   e X.& C 5.Q C *.Z p 4.C & + :.( + O i A X   u X.$ & ^ A e ^ X.p %.",
"S & S u     & p P X ~ y . y Z J - 2 j 8.p   & %.S u $ C $   q ^ & C 1.X.p *.p p 4.C & o *.R   o e C $ . e +.$ q ^ A e Q X.p o.",
"S $ P r     & e S X P u   e Z Z : 8 h 8.p   & *.C u X C $   & X.& u *.o.C *.p e 1.A &   %.A   . r C $   q o.X q U A & U o.p X.",
"S & P e     $ u D o P u . q Z Z - > y 9.p   & *.p u $ C X   q Q q u X.X.p *.p & *.S & X %.Z . X p P $ . q X.X q Q A $ P o.C U ",
"S & S q .   $ p S o D u   w X.%.e r { 8.e   q 1.p u $ C     & U e e Q Q p *.p $ %.T &   X.C   r =.5.q   e ^ X q ^ C X S %.C C ",
"S & P e   . $ u A . A p   r 7.7.+.F ] 8.y   & *.u e $ C o   & S e e A U u 1.p X X.P &   X.S . S e.r.Q   e X.X & Q C X S %.A p ",
"S q S i O   % d A   A p   p e.5.8._ ] 7.u . t 1.q e & C     q A e e p P u 2.u X X.S $ o ^ U X *.t.r.1.$ u X.$ & P p   C 2.S e ",
"S & P d O   X d C . F C   U e.1.5.$.` 8.Z . & 1.q e & C     e A e e e C q 1.e   Q A $ X ( ^ e 7.7.2.e.u p o.$ & P p   u e.C e ",
"A q S C .   $ p C   W p X %.2.Z 2.>.G 8.Z + - *.q e & A     u A u q q C $ %.e   P A $ $ P o.C e.U p r.C p U q & P p   e 7.e q ",
"A q A A .   % p p   U a y *.*.u *.,.J 4.S $ $ *.q q & P     u C p q q C X o.e   A S $ $ p %.X.7.p q 7.Q C C e $ S u   e 2.& q ",
"C q C S     $ p p + Q p k 0.O.Z %.8.] $.D w % 4.e & q U     u C C q & A X o.e   C S $ % u X.2.7.q $ 2.1.C u e X A e   e *.$ e "
};
