/* XPM */
static char *_4d28d5c9c3d42f0fd856bb2df2e5b9bvSsMRxcMYnjyUtFa[] = {
/* columns rows colors chars-per-pixel */
"64 64 256 2 ",
"   c #C4E072",
".  c #716EB7",
"X  c #716AA1",
"o  c #647DDB",
"O  c #147CE7",
"+  c #0F7AEF",
"@  c #3A7CE9",
"#  c #647DFA",
"$  c #1277D6",
"%  c #775BD3",
"&  c #4878D8",
"*  c #5670CD",
"=  c #6B6BD6",
"-  c #4775E9",
";  c #7074E3",
":  c #8674AA",
">  c #A478AB",
",  c #8D56D0",
"<  c #8C5DE1",
"1  c #3BA8B4",
"2  c #39B5BB",
"3  c #2EAFB6",
"4  c #13BAB3",
"5  c #4D97AF",
"6  c #7090B5",
"7  c #4DB2BB",
"8  c #6FAAB7",
"9  c #6D839B",
"0  c #64CEB9",
"q  c #0AEBB9",
"w  c #64EEBE",
"e  c #02DBB7",
"r  c #6BE494",
"t  c #4CD5B5",
"y  c #6ED4B4",
"u  c #4FE9B7",
"i  c #78E5B8",
"p  c #6FE7AA",
"a  c #5BE299",
"s  c #168ADC",
"d  c #1899D9",
"f  c #0B92D4",
"g  c #2987D9",
"h  c #3689D7",
"j  c #3698DA",
"k  c #2C94D2",
"l  c #04B5DB",
"z  c #11ABD8",
"x  c #2AA5DB",
"c  c #34A5DC",
"v  c #31B5D0",
"b  c #1B8BED",
"n  c #1987EA",
"m  c #0998E7",
"M  c #1796E9",
"N  c #1D86F5",
"B  c #1D8CF4",
"V  c #1E87F9",
"C  c #1E8AFA",
"Z  c #1689F6",
"A  c #0A98F8",
"S  c #1693F1",
"D  c #1A93F3",
"F  c #1A9AF3",
"G  c #1B94FB",
"H  c #169AFA",
"J  c #088AF8",
"K  c #248AEE",
"L  c #2886EA",
"P  c #3786E8",
"I  c #269BE8",
"U  c #2387F5",
"Y  c #238AF3",
"T  c #2888F9",
"R  c #3385F7",
"E  c #239DF2",
"W  c #2895FA",
"Q  c #3497F9",
"!  c #3997EC",
"~  c #02A8E9",
"^  c #17A5E9",
"/  c #05B5E8",
"(  c #1BB8E9",
")  c #05A6F7",
"_  c #18A5F9",
"`  c #08B6FA",
"'  c #19B9F7",
"]  c #26A9E8",
"[  c #35A7E7",
"{  c #22B4ED",
"}  c #28B7E7",
"|  c #37B5E8",
" . c #25A6F7",
".. c #39AAF7",
"X. c #27B7F4",
"o. c #64B7F8",
"O. c #4689D4",
"+. c #508ED0",
"@. c #6991CD",
"#. c #4ABBC6",
"$. c #56B9C7",
"%. c #4FAECF",
"&. c #74B5C9",
"*. c #6EADCC",
"=. c #449BE5",
"-. c #4E89E5",
";. c #4EB0F0",
":. c #67B7F4",
">. c #6784E2",
",. c #06D9CC",
"<. c #18DACA",
"1. c #17CBDA",
"2. c #0CDCD5",
"3. c #0BD4DD",
"4. c #0DDCDA",
"5. c #06D8D6",
"6. c #12DBD4",
"7. c #14D5DD",
"8. c #1AD4DC",
"9. c #13DCDB",
"0. c #1BDCDC",
"q. c #17D7D5",
"w. c #12C8D4",
"e. c #35D9C7",
"r. c #24D9D7",
"t. c #38D9D8",
"y. c #2BCDD0",
"u. c #04E6C9",
"i. c #17E5CC",
"p. c #0DE2D9",
"a. c #07E6D7",
"s. c #14E2D5",
"d. c #19E2D5",
"f. c #14E2DC",
"g. c #1BE3DC",
"h. c #18EBD9",
"j. c #1AF2D7",
"k. c #0DF6D1",
"l. c #27E6C9",
"z. c #3AEACA",
"x. c #37F2C9",
"c. c #22E2DA",
"v. c #2BEBDC",
"b. c #28E6D7",
"n. c #33EBDB",
"m. c #3BEBDB",
"M. c #38E6D6",
"N. c #28F6D9",
"B. c #37F5D8",
"V. c #2BF6C7",
"C. c #05CAE9",
"Z. c #13C5E3",
"A. c #1AC4EB",
"S. c #17CAE8",
"D. c #09D7E5",
"F. c #15D5E2",
"G. c #1AD4E3",
"H. c #1BDBE3",
"J. c #18D8E7",
"K. c #06C8F7",
"L. c #19C7F8",
"P. c #07D7FC",
"I. c #12D2F2",
"U. c #25C7E9",
"Y. c #26D9E6",
"T. c #36D6E8",
"R. c #24C4F4",
"E. c #35CFF1",
"W. c #06E6E6",
"Q. c #1AE8E3",
"!. c #0FF4F0",
"~. c #27E6E5",
"^. c #39EAE2",
"/. c #39F9E7",
"(. c #2CF0F3",
"). c #48C4CA",
"_. c #57C6CB",
"`. c #58D8C9",
"'. c #49CCD4",
"]. c #5ACAD6",
"[. c #48D9D8",
"{. c #57D8D7",
"}. c #49DCC8",
"|. c #76DBC7",
" X c #66D8D8",
".X c #6ED1D3",
"XX c #43EDCC",
"oX c #49E9CB",
"OX c #56E7CC",
"+X c #44F3CB",
"@X c #4DEDD3",
"#X c #43EADA",
"$X c #4AEBDB",
"%X c #48E4D9",
"&X c #55E3D4",
"*X c #5BE5D5",
"=X c #55EBD4",
"-X c #5BEAD6",
";X c #54E3DB",
":X c #5CE4DB",
">X c #5CEBDA",
",X c #55ECDA",
"<X c #45F5D9",
"1X c #56F3D7",
"2X c #69E5CA",
"3X c #7BE4CB",
"4X c #76E5C7",
"5X c #64E4D5",
"6X c #6BE3D3",
"7X c #62E9D5",
"8X c #63E3DA",
"9X c #6BE3DB",
"0X c #62EAD9",
"qX c #6AEAD7",
"wX c #75E5D6",
"eX c #6DF2D1",
"rX c #46D8E9",
"tX c #57D9E2",
"yX c #4FCDFB",
"uX c #69DCE3",
"iX c #75DAE7",
"pX c #6FC9F2",
"aX c #49E8E3",
"sX c #57E7E6",
"dX c #47F5E6",
"fX c #57F4E4",
"gX c #4CF1F5",
"hX c #66E7E4",
"jX c #78E7E6",
"kX c #69F4E5",
"lX c #71ECF1",
"zX c #9ADD98",
"xX c #8BD493",
"cX c #AFDA98",
"vX c #89DBB8",
"bX c #8FD9A9",
"nX c #A8D7A9",
"mX c #85E3BA",
"MX c #95E6AB",
"NX c #9DE391",
"BX c #8C9FC8",
"VX c #87DBC5",
"CX c #89D9DA",
"ZX c #94D3D2",
"AX c #87E3C8",
"SX c #92E7D6",
"DX c #98D6E5",
"FX c #87D3F9",
"GX c #8DD3EE",
"HX c #B4DAF0",
"JX c #8EE9EC",
"KX c #ACE9F0",
"LX c #A2DCD6",
"PX c #C8D7F1",
"IX c #D9EBFF",
"UX c #ACAFA2",
/* pixels */
"XXXXXXoXXXz.z.x.x.z.x.x.x.x.x.x.x.x.x.x.x.x.x.x.XXXX+Xz.XX+X+X+XoXoXoX=XOXOXOXOX-X1XOXOX-XOXOXqX=X=X1X=X-X>X-X,X@X@X@X@X@X<X@X@X",
"oX@X@XXXXX+X+X+XXXXXXXXX+XXXB.z.+Xz.z.B.B.B.+X+XoX+X@XoXXX1X1X@X-XkXkXoXoX@X1Xu oXOXOXOX0X-X&X*X=X-X=X-X=X>X1X-X@X@X@X=X@X@X=X@X",
"=XOX=X=X@X@X@X@X@X@X@X@XoX@XoXoXoX=X@X#X@X@X=X=X=X=X=X=X,X>X-X&X_.t ).`.>X,X=X1X0XkX>X*XOX*X*X=X=X=X=X=X-X=X=X-X1X=X=X=X=X=X=X=X",
"-X-X=X=X-X-X-X-X-X=X=XOX*X-X*X2X2X*X&X&X{.&X&X*X*X*X*X&X8X9X*X`.7 1 7 _.hX9X;X,X{.{.hX8X*X:XhX;X*X*X-X*X=X*X0X-X=X>X-X>X>X-X-X1X",
"-X-X-X7X7X-X7X7X7X7X0X:X5X6X2X4X X6X X5X{.8X5X9X X8X X{.9X9X X`.].lXuX#.#. XiX7 7 v  XhXhXhXhX}.7X*X*X-X-X7X-X-X0X0X7X>X7X-X0X>X",
"7X7X7X7X7X7X5X5XqX0X8X8X5X6X3X|.3XwXwX9XhX9X9X9X8X9X9X8X9X9X X X#.lXlXuX$.$.$.7 ].$.].8X{.*XkX{.7X*X*X7X7X0X0X0X7X-X0X0X0X0X0X7X",
"7X7X7XqXqXqX5XqXqX5X:X:X9X6X3XVXAXwXwX9X9X9X9X9X8X9X9X9X9X9XwX9X%.7 $.iX X$.7 wXiX$._.9X`.{.kX>X7X7X8X0X8X0X0X0X>X0X7X0X0X0X0X7X",
"7X7X0X0XqXqXqXqXqXqX:X:X9X6X3XVX3X|.4XwX9X9X9X9X8XqXhX5X8X9X9X9XGX$.5 $. X XjXjX].7 $.lXjX0X0X&X7X0X7X0X0X0X0XqX7X-X>X7X-X7X>X-X",
"0XqXeX7X-X>X7XeX>X>X>X-X*X5X4X3XaXuXSXi 7XsXuX2XMXnXcXbX8XlXiX&.1 %.$.*.5 $.lX%.%.].uXlXhX:X`.*XwX<XkX1X XdXkXZXfXwXJXx.1XCX X<X",
">XqX2X2X:X*X7X4X3X4X4X2X2X2X2X|.4X X9X2X{.hX3XMXSXAX3XSXVX`.).%..XiXlXiX$.$..X1 1 #._.{.9XhXfXkX XB.6XX X 8 /.B._.8 `.kXhX&XkX1X",
"sXqX7X5X:X-X2X4XmXmX4X4X4X|.|.|.sXi i gXhXzXNXwX=X{.tX8X4XvX8 U.uX$.$.v #.].uXuX%._.#._.{.{.{.=XkX XBXy jX> =XfX9 8 7 wXkX;XfX>X",
"sX>X8X8X:X5X4XvXAX4X4XeX4X4XAX|. X$X:XVXnXMX2XaXsXaX:X6X|.y ).v 2 2 #.7 ]._.v #.iXiX].{.sXkX,XsX>XsX.X6 iXVX=XBX6 jXBX_./.jX{.kX",
"sX:X8X:X;X X4Xi :X:X8X0XqX3XAXvX|.aXdXvXcXOX^.rXtXqXAXvX2X%X[.].'.'.hX).uX).3 ).v 7 3 2 [.;X%X%X%XaXaX7 *.dX5 : .X&.*.aXn.lX_.sX",
";X;X:X;X;X;X2XmXrXtXaX;X*X6X4X3XvX2X[.[.{.&X&X{.}.vXbXp XXgXlXsXaXsXsX2 {.).sXlX).}.).[.sXsXsXaXsX{./.sX*.dXX 6 /.X #.gX'.m. XaX",
";X*X&X$XaX;X2Xi *X&X&X&X&X5X2X|.i  XrX`.%XgX7XNXAXeX2X X{.b.M.].t.aXsX).tXv {.[.[.sX[.[.aXaXt.[.sX%XrX: X tX*.8 ^.6 *.tXtXm.tXt.",
"&X&X&XaXaX$X2Xi mX4X2X*X&X:X{.sX(.i bX,XdXvXnXmXi `.rX^.#X}.[.gXaXdXtXv '.3 sX[.%XaXaXaXsXaXrXsX].. 6 BX'.&.@.. %.gXBX5 /.rX^.^.",
"$X$X$X$X$X#X%X%X2XMXnXcXcXMXMXxXu AXi p MXDXgX~.$X{.;XdX#X XuXM.m.fXb. X4 v /.b.^.^.^.^.^.^.m.^.6 $.^.rXBX: 5 aXX #.[.[.{.'.^.!.",
"$X$X$X$X$X#X#X#XaXN.hX:XdX/.B.vXwXAXmXVXi MXMX2X1XOX#Xm.#X[.$Xn..XdXaX,X;X[.hXsX#Xm.#Xm.#X#X^.^./.%.: : t.N.).*.].*.6 5 e./.dX{.",
"#Xm.#X#Xm.$X#Xm.M.M.B./.(.N.-XmXu V.+XrX/.u NXzX7Xz.M.<XaXm./.<Xm.N.N.i.jXk.x.m.m.m.m.m.m.m.M.m./.j.t.[.v.[._.$.'.].$.).[.m.#X%X",
"m.m.B.m.m.x.m.m.x.|.u w x.i nXp u N.dX7XV.!.N.m.2Xz.x.fXaXB.N.%X/.B.XX*XPX7XN.=Xm.m.M.m.m.m.m.m.j.{.,XB.B.M.$.: 0 m.N.N.m.}.j.k.",
"n.v.v.n.n.n.n.B.(.T.t.k.u ZX Xj.(.sXAXNXNX-X(.(.3XoXx.$X[.M.z.}.M.e.oXKXLXJXdXz.m.m.M.M.n.m.m.M.N.#XM.i.n./.j.i.N.N.N.l.N.N.j.N.",
"v.v.v.v.v.v.N.~.(.!.j.z.4X|.n.W.!.|.i x.u bXbXVXqXoXb.M.M.$XfXkXwXz.oXCXq kXqXi.n.n.n.n.n.m.n.n.{.aXsX{.N.v.fXfXN.<X[.%XB.N.n.%X",
"g.f.g.g.g.g.Q.g.n.l.k. X|.w b.~.p r z.!.!.z.a a oX[.v.Q.b.sXlXeXKXSXSX`.w wXiX~.b.b.r.b.b.b.b.b.t.u.k.h.k.v.[.y.t.m.n.^.#X#Xt.m.",
"9.f.9.f.f.f.9.f.q s.rXT.j.k.k.T.nXV.j.t.Y.!.(.(.l.z.~.a.s.:X2X0 V.ZXKXq wXjXy.a.~.r.c.c.c.r.c.r.s.t.b.b.t.r.a.j.g.h.s.i.b.b.d.v.",
"a.h.0.5.9.9.1.t.T.W.W.r.t a r nXH.c.g.c.g.g.g.g.Q.g.~.(.r.[.JXHXx.0 0X+X2XHXM.<.l.<.<.~.Q.8.r.b.0.r.0.0.H.r.0.Y.r.0.Y.0.0.r.Q.0.",
",.0.Y.r.Y.~.f.g.,.a.W.r.}.oXu z.0.0.0.0.0.0.d.9.r.r.D.a.5.u.j.V.jXk.HXZXq .XJXIXkXsX^.~.0.0.q.<.0.0.0.H.0.g.0.g.0.0.0.0.0.0.0.0.",
"F.J.T.E.r.G.4.,.w t.T.J.J.~.H.5.q.q.0.9.9.9.9.9.r.0.p.0.aX{.`.u HXV.DXDXN.u.e e .X.X[.y.,.9.Q.0.0.0.0.9.0.0.0.H.0.0.0.0.0.0.0.0.",
"Y.Y.Y.~.1.r.T.<.VXDXtXD.W.L.E.F.H.H.H.0.H.H.9.H.q.W.4.t.FXHXLXKX|.0 e r.GXJXHXDXJXjXtXr.q.Q.H.r.0.9.0.0.0.g.0.d.0.9.0.9.0.9.0.0.",
"E.J.W.W.r.tXlXwXSXDXuXg.D.Y.T.r.H.H.H.H.H.Q.Q.H.T.Q.a.,.M.[.i.k.JXPXjXd.GX[.JX.XhX;Xr.g.W.9.0.r.9.9.9.0.9.9.9.9.9.9.9.9.9.9.9.9.",
"T.F.a.u.t.hXKXLX1XqX6X@XY.r.p.u.0.0.0.0.0.9.9.0.5.a.2.t.iXHXPXHXu.M.DXu.aXi.k.u.y.,.,.u.h.4.q.Y.H.f.9.f.9.f.9.9.9.9.6.9.9.4.6.9.",
"Y.h.p.r.{.SXZXAX;XOX4XSXhX0.a.p.0.0.0.0.0.9.d.9.~.0.0.f.4.s.d.<.t.u..Xq fXM.u.4.Q.Q.h.h.f.f.2.2.9.f.f.9.4.9.9.2.2.6.6.4.9.2.9.2.",
"g.Q.c.[.JXKXAXeXDXCXSXLXjXH.F.rXr.g.g.c.g.0.d.g.J.8.~.Q.a.W.Q.d.Q.u.JXu PX{.5.(.5.Q.f.6.9.h.h.2.p.f.4.f.9.9.4.9.4.4.4.4.2.9.2.4.",
"h.b.d.n.1XkXwX3XmX3X0X<X~.g.d.b.d.d.d.d.d.d.d.6.s.s.s.s.s.s.s.s.a.i.e.OX#Xb.<.u.i.i.y.r.6.6.2.u.6.6.6.6.6.6.9.6.3.3.6.6.6.w.q.3.",
"N.j.i.i.l.oX-XqXSXOXe.<.h.h.h.<.d.d.d.d.d.d.d.d.s.s.s.s.s.s.6.p.!.s.<.r.r.6.s.h.5.a.a.9.9.6.6.s.6.6.6.6.9.6.4.6.3.9.9.3.3.7.6.q.",
"i.j.j.i.,.i.n.<X1XB.<.,.a.j.h.,.f.s.s.s.s.s.s.s.p.p.p.p.2.p.2.p.W.4.6.d.W.5.5.<.Z.D.W.W.9.r.q.9.6.6.2.2.4.3.6.4.6.7.4.9.7.7.7.7.",
"i.j.Q.j.f.d.f.v.b.i.h.p.a.a.s.i.p.p.2.p.s.f.p.p.p.2.p.5.p.5.5.2.5.5.2.a.W.4.<.<.t.9.a.a.D.8.8.2.2.2.2.2.4.4.4.3.9.7.7.F.0.9.8.F.",
"<.<.r.Q.Q.9.9.6.,.d.Q.Q.d.9.6.c.2.4.f.2.9.p.4.p.a.4.W.4.a.4.5.W.0.6.,.,.5.5.e.OX`.e.i.,.q.8.F.D.3.4.9.3.4.F.D.D.F.F.F.F.F.F.8.G.",
"r.1.8.1.G.J.7.6.9.7.7.9.0.H.8.8.9.2.6.4.4.3.2.9.D.4.D.4.D.5.D.5.6.q.5.W.4.q.e.u }.t 0 <.q.9.D.C.7.6.3.7.9.3.F.F.9.7.8.7.F.8.F.8.",
"Y.G.G.G.G.G.G.9.H.F.1.7.8.H.H.F.3.9.9.4.9.6.6.9.D.3.4.D.3.3.3.3.5.5.D.J.I.q.e.t <.e.t.t.3.5.6.y.7.F.7.7.F.F.F.F.F.7.F.7.7.G.8.F.",
"F.I.Y.S.G.G.7.1.7.F.H.H.H.7.D.D.9.7.7.6.7.6.3.9.3.3.3.3.3.3.3.3.D.C.D.C.C.Z.e.`.,.S.rXE.D.,.w.T.7.7.7.F.F.F.F.F.7.7.7.F.1.7.7.8.",
"C.S.U.S.F.F.A.R.G.1.D.S.U.U.8.F.I.U.U.G.F.a.3.G.D.7.H.F.F.7.7.3.D.t.r y E.<.1.'.].K.r.e.C.y   a p y e.( K.K.P.D.S.S.3.Z.F.Z.F.F.",
"A.L.I.x k k U.P.U.S.S.I.I.I.C.C.S.S.D.3.Z.| U.D.D.S.F.G.G.G.J.J.y.e.rXt zXNXa (.y w.t.nXZX X[.I.v t.T.Y.1.1.1.} Z.Z.Z.Z.Z.Z.Z.Z.",
"{ ] c c x v x k ! h j ] ( ( X.[ C.U.R.C.C.R.R.A.S.S.S.S.S.Y.J.Y.R.}.t.L.K.P.t xXu W.S.[.t.K.K.w.$.].{.t.1.A.L.R.Z.Z.Z.Z.A.Z.Z.Z.",
"..x k c } } k O.j j I { L.L.o.;.} U.X.} ( P.R...L.A.L.S.A.S.R.A.P.E.r bXy t 1.L.t.vX_.C.J.}. XZXi 2Xt.X.' L.P.C.L.R.X.R.' R.A.X.",
"X.( x j O.O.x A.c c ] } U.] j +.+.( K.{ ..L.L. .o.X.{ X.{ A.( U.2 1.y.E. XvXuXX.t.cXnXv y NXvX%.1.w.( ` L.X.v v { { { ( { { { { ",
"o.} ] c c k x } %.k x } [ +.+.+.>.x ( ....' ( =.[ [ ] { ( ' { } X.z ~ ~ ~ U.OX].U.].R.' y xX0 w.( ( A.Z.Z.( ' X. .^  .] ] _ _ { ",
"X.] k } U.( x O.c ( C.I.| =.[ } x j =...{ ] O.@.j j c ] { { { _ Q v o.o.v $.y 7 x ' ` ..:.yXyXZX| | | } ^ _ _ '  . .E  .]  . . .",
"X.( } [ j j ] R.-.] ( ' =.-.[ Z.} =.[ K.X.* . +.+.+.! [ { X.{ _  ._ /  .=.y ;.S =..XzXxXv A H 8 X.^ A H  . .j k ] E E E E E E ] ",
"} ] x k j ] [ x z v } | ( ] +.z K.=.+.z j >.z l k O.-.M / ) H A f X.^ x yXo.M  .vX7 v ;..X&.%.=.;.d E ..C D ..I W f T [ E W s Q ",
"] ] I I j I I ] =.E `  .` ` =.] ` ] -.; ; d l -.< P ~ / F ) ) / ) ' A f | #.1 $.$.] J G =.$.y i | d F W F F F S _ d G I F G s G ",
"^ M I I  .] ] M -.H ) Q _ / ! P  .K.[ - / ^ < = ~ ~ ) F W _ ) S A ) A F ;._..XiX.._ ) ) M k x } I M M ^ _ E F D H ] W M _ A _ _ ",
"F F D E W W E F W / l d z d O.& F -.O.z / I ; l ~ F A ` ) ) M ) / ) ) F ] x %.=.f ^ / ^ ^ _ G A F _ ^ ~ ^ _ F D M [ E s _ A _ F ",
"F B S B G G G H m o , , , % * f g % O.z / I O.l ) F H ) ) ) F ~ z ~ _ _ A m F m z _ _ A H _ _ z F  ._ m ^ ] I I :.pX:.j  .M  .M ",
"B B b Z B D Z S V O - o f @ K ~ g & O.d ~ K = = ~ ~ ) Y R D A F A J H _ _ ) ' _ E H G H F F d d S _ _ S ] ..:.;.CX:.GX=.W M W g ",
"Y Y b b Z D b b # J @ o $ o P R m = = L @ L m g < h ~ ) D D A ) G G G J m f m m J s s d ^ F G C S S H H K :.FXZXZX* GXh O s C n ",
"W Y Y Y Y D B b L ~ & . . . . % P m n Z G G ) K g o - M ) H D D M M M M I E Z C A M b F G J A M F S G Z $ ;.GXBXKX@.KX;.Z S C Y ",
"Y b D b Y b B K Y Y Y G H S L P L M = % * * g f * & P L B D F M S S S S H F S D S S S M b D S S Z M I O o FXKX@.ZX*.+.FXg Q $ C ",
"D Y Y Y D Y B B K Y N S S S L P - n @ o g * = % & o @ K B D b S D D B F D D D D S S S S S S S S W b b Y Q pXHXBXBXGXFX:.$ L W B ",
"Y V V N N Y V N b B Y B B N L - - n @ o M @ Y # h o L N U C Y K B B B B D B B B D B B D D S D D S Z G E K ! :.:.FX& g ! Q + B n ",
"V V C C B V V C b N Y N Z L L @ s f @ @ L # J A L K Y V V B L L C V B Y V Y V V B D B D B B Y B n C Y M K O T ;.;.O g O W n W Z ",
"V V Y N N U V V N N U V U Y L @ * & - O L # Y # N N N N U U K U T U U U Y Y U U B B B B G Y B B E T Z n E T + g O Q ..Z + Z W T ",
"Y N N Y U U U N B V # T N Y L @ % = & O M B ) T N Z N U U K U L U U U T U U U U U Y Y T Y Y Y U n T N O W T V n T + $ C W C + V ",
"Y Y Y Y Y Y Y U Y U # U V B U L m M N A U R m P T K Y U U U U U Y K U K K U Y K T U U U U U U U O K T N U n Y T # T T C T T W T ",
"Y K Y Y K U K K U T T U N B Y U N U # G # - A - T R T L U C T T K K K K K K K K U U T T U U U T T L L # T L I T T T T O W U T U "
};
