/* XPM */
static char *_f14c6bb3311461e935b89abd3057780A5cZLvNhvglKhxZF[] = {
/* columns rows colors chars-per-pixel */
"64 64 169 2 ",
"   c None",
".  c #AB3D1E",
"X  c #AF3724",
"o  c #AE3B22",
"O  c #B13427",
"+  c #B03926",
"@  c #B23428",
"#  c #B53A2C",
"$  c #B93D31",
"%  c #9E5D06",
"&  c #9F5F08",
"*  c #A1540D",
"=  c #A25B0C",
"-  c #A74717",
";  c #A54B13",
":  c #A74118",
">  c #A9441A",
",  c #AA4C1E",
"<  c #A35110",
"1  c #A55C10",
"2  c #A6541B",
"3  c #A9511E",
"4  c #A55B19",
"5  c #9F6209",
"6  c #9E6D0C",
"7  c #996D05",
"8  c #9D750E",
"9  c #9A7C0D",
"0  c #9E6C12",
"q  c #9D7210",
"w  c #A3630B",
"e  c #A46B0E",
"r  c #A8680F",
"t  c #A1720E",
"y  c #A17A0F",
"u  c #A26315",
"i  c #A86610",
"p  c #A26A13",
"a  c #AB6C13",
"s  c #A56419",
"d  c #B06F17",
"f  c #A77111",
"g  c #AE7416",
"h  c #A37C11",
"j  c #A8711F",
"k  c #B07117",
"l  c #B3741A",
"z  c #B7791E",
"x  c #B9791E",
"c  c #AF4323",
"v  c #AB4C20",
"b  c #B34129",
"n  c #AD5321",
"m  c #BC4335",
"M  c #BB4B34",
"N  c #BF4639",
"B  c #BF4839",
"V  c #B3652C",
"C  c #BC7D22",
"Z  c #BF7A3C",
"A  c #C14B3D",
"S  c #C44F40",
"D  c #C65243",
"F  c #C85546",
"G  c #C95748",
"H  c #CC5B4B",
"J  c #CD604D",
"K  c #C87047",
"L  c #C97549",
"P  c #CF6050",
"I  c #D36454",
"U  c #D66A59",
"Y  c #D96D5D",
"T  c #D46E56",
"R  c #DA715F",
"E  c #DD7462",
"W  c #DF7866",
"Q  c #E07A67",
"!  c #E37E6B",
"~  c #968607",
"^  c #99830C",
"/  c #978D0A",
"(  c #9B8B0E",
")  c #958D07",
"_  c #939406",
"`  c #959309",
"'  c #98940C",
"]  c #96990A",
"[  c #999D0D",
"{  c #9F9B14",
"}  c #A28412",
"|  c #A38C15",
" . c #A49317",
".. c #A49518",
"X. c #A59C1A",
"o. c #9AA10F",
"O. c #9CA512",
"+. c #9EA915",
"@. c #A0AC17",
"#. c #A6A31C",
"$. c #A2AD1A",
"%. c #A4B21C",
"&. c #BF8125",
"*. c #BD863A",
"=. c #A7AD20",
"-. c #A8AE20",
";. c #A7B721",
":. c #A9B322",
">. c #A7B821",
",. c #AABC25",
"<. c #C18226",
"1. c #C48629",
"2. c #C7892C",
"3. c #C98B2E",
"4. c #CC8E31",
"5. c #CE9032",
"6. c #D29335",
"7. c #D59738",
"8. c #D7993A",
"9. c #D89A3B",
"0. c #DA9F40",
"q. c #DBA345",
"w. c #DCA648",
"e. c #DEAA4D",
"r. c #DFAE50",
"t. c #E0AF52",
"y. c #E1B255",
"u. c #E2B659",
"i. c #E3BA5D",
"p. c #E5806D",
"a. c #E98774",
"s. c #EB8A75",
"d. c #EF8F7B",
"f. c #E4BD61",
"g. c #E4BC60",
"h. c #E6C266",
"j. c #E6C165",
"k. c #E7C468",
"l. c #E8C66B",
"z. c #E9C96E",
"x. c #E9C96E",
"c. c #EBCD72",
"v. c #EBCF74",
"b. c #EBCD73",
"n. c #ECD076",
"m. c #EDD57A",
"M. c #EED77D",
"N. c #EDD378",
"B. c #EED87E",
"V. c #EED87E",
"C. c #F59983",
"Z. c #EFDA80",
"A. c #EFDB81",
"S. c #F0DE84",
"D. c #F1E086",
"F. c #F1E087",
"G. c #F2E289",
"H. c #F3E48B",
"J. c #F3E68C",
"K. c #F4E78E",
"L. c #F4E78D",
"P. c #F3E48B",
"I. c #F4E88F",
"U. c #F4E88F",
"Y. c #F4E990",
"T. c #F5E991",
"R. c #F5EB93",
"E. c #F5EA91",
"W. c #F4E990",
/* pixels */
"                                                      % % 5 w w w w w w % % w % = % % %                                         ",
"                                              % w w a l C 2.3.6.4.4.3.3.2.1.1.<.<.C x l k r w =                                 ",
"                                        % w k C 3.6.8.8.9.9.9.9.9.9.9.9.8.8.9.9.9.9.9.9.8.7.5.1.z w w                           ",
"                                    w r C 6.8.9.9.9.8.8.9.9.9.9.9.9.9.w.u.u.q.9.9.9.9.9.8.9.8.9.8.6.C a 5                       ",
"                                = r &.6.9.9.9.9.9.9.9.9.9.9.8.9.9.9.w.B.U.U.u.8.9.9.9.8.9.9.9.9.8.9.9.7.C w                     ",
"                              w z 6.9.9.9.9.9.9.9.9.9.9.9.9.9.9.9.8.y.T.U.z.q.8.9.9.9.9.9.8.9.9.9.9.9.9.8.1.w %                 ",
"                          % r 1.9.9.9.9.9.9.9.9.9.9.9.9.9.9.9.9.9.9.e.b.i.9.8.9.9.9.9.9.9.9.9.9.9.9.9.8.8.9.4.a                 ",
"                        % l 6.9.9.9.9.9.9.q.e.9.9.8.9.9.9.9.9.9.9.8.9.9.9.9.9.9.9.9.9.9.9.9.9.9.9.9.9.9.9.9.9.3.w               ",
"                      w C 8.9.8.9.9.9.q.k.D.D.e.9.9.9.9.9.9.9.9.9.9.9.9.9.9.9.9.9.9.9.9.9.9.9.9.8.9.9.9.9.9.9.9.C %             ",
"                  % i 1.8.8.9.9.8.9.9.i.T.T.B.q.9.9.9.9.9.9.9.9.9.9.9.9.9.9.9.9.9.9.9.9.9.9.9.9.9.9.9.9.9.9.9.9.6.r             ",
"                % a 3.9.9.9.9.9.9.9.9.j.m.k.w.9.9.9.9.9.9.9.9.9.9.0.9.9.9.9.9.9.9.9.9.9.9.9.9.9.9.8.8.8.9.9.9.9.9.C %           ",
"              % g 6.9.9.9.9.9.9.9.9.9.9.9.9.9.8.9.9.8.9.9.9.8.e.z.B.n.q.9.9.9.9.9.9.9.9.9.9.9.9.9.q.i.u.9.9.9.9.9.6.w           ",
"            = z 8.8.9.9.9.9.9.9.9.9.9.9.9.9.9.9.9.8.9.9.8.9.9.z.R.T.T.u.9.9.9.9.9.9.9.9.9.9.9.8.e.M.R.M.0.9.9.8.9.8.a %         ",
"          % k 8.8.q.9.9.9.9.9.9.9.9.9.9.9.9.9.8.9.9.9.9.9.9.9.f.M.n.i.q.9.9.9.9.9.9.9.9.9.9.9.8.i.T.L.k.9.9.9.9.9.8.&.%         ",
"          r 6.8.t.M.k.8.9.9.9.8.9.9.9.9.9.9.9.9.9.9.9.9.9.9.9.9.9.9.9.9.9.9.9.9.9.9.9.9.9.9.9.8.w.z.i.0.9.9.9.9.9.9.3.w         ",
"        = 1.8.q.S.R.z.9.9.9.9.9.8.9.9.9.9.9.9.9.9.9.9.9.9.9.9.9.9.9.9.9.9.9.9.9.9.9.9.9.9.9.9.9.8.9.8.9.9.9.9.9.9.9.6.w         ",
"      % l 8.8.w.m.b.w.9.9.9.8.9.9.9.9.9.9.9.9.9.9.9.9.9.9.9.9.9.9.9.9.9.9.9.9.9.9.9.9.9.9.9.9.9.9.9.9.9.9.8.9.9.9.9.8.a         ",
"      w 3.8.8.8.q.9.8.9.8.9.9.9.q.r.e.9.8.9.9.9.9.8.9.9.9.9.9.9.9.9.9.9.9.9.9.9.9.9.9.8.9.9.9.9.9.9.9.9.9.9.9.9.9.9.8.d 7       ",
"      a 8.9.9.9.9.9.9.9.9.0.i.b.S.L.B.q.9.9.9.9.9.9.9.9.9.9.9.9.9.9.9.9.9.9.9.9.9.9.9.9.9.9.9.9.8.9.9.9.9.9.9.9.9.9.9.l 9 ]     ",
"      l 8.9.9.9.9.8.9.9.9.l.T.R.K.K.K.u.8.9.9.9.9.9.9.9.9.9.8.9.9.9.8.9.9.9.9.9.9.9.9.9.9.9.9.9.9.9.9.9.9.9.9.9.9.9.9.l } ;.O.  ",
"      l 8.9.9.9.9.9.9.9.9.M.U.R.T.K.K.u.8.9.9.9.9.9.9.9.9.9.9.9.9.9.9.9.9.9.9.8.9.9.9.9.9.9.9.9.9.9.9.9.9.9.9.9.9.8.8.z } ,.%._ ",
"      a 8.9.9.9.9.9.9.9.9.l.R.L.K.T.m.q.9.9.9.9.9.9.9.9.9.9.9.9.9.8.9.9.9.9.9.9.9.9.9.9.9.9.8.9.9.9.9.9.9.8.9.9.9.8.8.l } ,.>.] ",
"      a 8.9.9.9.9.9.9.9.9.w.M.L.L.z.q.9.9.9.9.9.9.9.9.9.9.9.9.9.9.9.9.9.9.9.9.9.8.8.9.9.9.9.9.9.9.9.9.9.9.9.9.9.9.9.8.k } ,.%.] ",
"      a 8.9.9.8.9.9.9.9.9.9.q.y.r.9.8.9.9.9.9.9.9.9.9.t.y.9.9.9.9.9.9.9.9.9.9.y.i.u.q.9.9.9.9.9.9.9.9.9.9.9.9.9.9.9.8.k | >.[ _ ",
"      a 7.8.8.9.9.9.9.9.9.9.8.9.9.9.8.9.9.9.9.9.9.9.l.H.H.u.9.9.9.9.9.9.9.9.i.L.T.D.q.9.9.9.9.9.9.9.9.8.9.9.9.9.9.9.7.a | o._   ",
"      w 6.8.9.9.9.9.9.9.9.9.9.9.9.9.9.9.9.9.9.9.9.r.L.T.T.B.9.9.8.9.9.9.9.9.N.U.T.k.9.9.9.9.9.9.9.9.9.8.8.8.8.9.9.9.6.w ( _     ",
"      w 4.9.9.9.9.9.9.9.9.9.8.9.9.9.9.9.9.9.9.9.8.w.B.T.K.z.9.9.9.9.9.9.9.8.i.S.n.q.9.9.9.9.9.9.9.9.9.e.u.i.e.9.9.9.3.w { _     ",
"      % 1.9.9.9.9.9.9.9.9.9.9.9.9.9.9.9.9.9.9.8.9.8.e.k.u.q.9.9.9.9.9.9.9.8.8.q.9.9.9.9.9.9.9.9.9.q.z.H.T.T.z.9.9.9.x t %.]     ",
"      % x 9.9.9.9.9.9.9.9.9.8.9.9.9.9.8.9.9.9.9.9.9.8.8.8.9.9.9.9.9.9.8.9.9.8.9.9.9.8.9.9.9.9.8.q.m.U.U.L.L.y.9.9.5.w | ,.o.    ",
"        a 8.9.9.9.8.9.9.9.9.8.8.9.9.9.9.9.9.9.9.9.9.9.9.9.9.9.9.9.9.9.9.9.9.9.9.9.9.9.9.9.9.9.w.m.T.U.U.L.c.9.9.9.&.e :.,.%._   ",
"      ~ e 6.8.9.9.9.9.9.9.9.9.w.u.e.9.9.9.9.9.9.9.9.9.9.9.9.9.9.9.9.9.9.9.9.9.9.9.9.9.9.9.9.q.M.R.U.U.R.S.q.8.8.6.r  .,.,.;.]   ",
"  _ [ $.8 C 9.9.9.9.9.9.9.8.w.S.T.M.q.8.9.9.9.9.8.9.9.9.9.9.9.9.9.9.9.9.9.9.9.9.9.9.9.9.8.r.B.R.L.U.U.D.y.8.8.8.z 8 :.,.,.$.]   ",
"_ [ ,.,.| k 8.9.9.9.9.9.9.9.q.M.S.f.9.9.9.9.9.8.9.9.9.9.9.9.9.9.9.9.9.9.9.9.9.9.9.9.9.9.u.S.U.U.U.U.L.u.9.9.9.1.w #.,.,.$.] )   ",
"] $.,.,.#.e 6.8.9.9.9.9.9.9.9.q.w.9.9.9.9.9.9.9.9.9.9.8.9.9.9.9.9.9.9.9.9.9.9.9.9.8.q.l.L.T.U.U.U.L.i.8.9.9.3.w } >.;.O./ 8 5   ",
"] $.,.,.,.h <.9.9.9.9.9.9.9.9.9.9.9.9.9.9.9.9.9.9.9.9.9.9.9.9.9.9.9.9.8.9.8.9.q.r.k.S.T.L.U.U.U.B.u.8.9.9.3.i t :.%.] 9 v o %   ",
"_ [ O.$.;.#.a 6.9.9.9.9.9.9.9.9.9.9.9.9.9.9.9.9.9.9.9.9.9.9.9.9.9.8.9.q.t.j.N.B.H.T.T.T.U.U.L.l.w.8.9.9.3.i t -.>.[ p + U B ; % ",
"    _ _ ] %.} a 6.9.9.9.9.9.9.9.9.9.9.9.9.9.9.9.9.9.9.9.9.9.9.9.9.8.u.B.L.R.U.U.T.T.T.K.S.z.t.9.8.9.8.1.w y :.,.O.q + @ G m - % ",
"          [ :.h a 4.0.9.9.9.9.9.9.9.9.9.9.9.9.9.9.9.9.9.9.9.9.9.9.w.S.R.U.U.U.U.K.S.n.g.w.9.8.9.9.8.&.w | >.,.>.' v @ O D B > % ",
"          ] ;.:.| a 1.8.9.9.9.9.9.9.9.9.9.9.9.9.9.9.9.9.9.9.9.9.9.9.f.n.n.N.l.i.t.q.9.9.9.9.8.9.6.l e X.,.,.,.%.^ o @ @ N $ > % ",
"          ] ;.,.,.X.t l 6.9.9.9.9.9.9.9.9.9.9.9.9.8.9.9.9.9.9.9.9.9.9.9.9.9.9.8.9.9.9.9.9.9.8.1.r } %.,.,.,.,.%.^ + @ O O @ ;   ",
"          [ >.,.,.,.:.} a <.6.9.9.9.9.9.9.9.9.9.9.9.9.9.9.9.9.9.9.9.9.9.9.8.9.9.9.9.9.9.9.5.l t X.,.,.,.,.,.,.+.q @ $ # @ X *   ",
"          O.,.,.,.,.,.,.#.h i C 7.9.9.9.9.9.9.9.9.9.9.9.9.9.9.9.9.9.9.9.9.8.9.9.9.9.9.6.C f | :.,.;.$.$.%.@.o./ 3 $ W A @ -     ",
"        ] $.,.,.,.,.,.,.,.,.X.h a <.6.9.9.9.9.9.9.9.8.8.9.8.9.9.9.9.9.8.7.6.4.2.C x g } ..%.,.%.[ / ^ 9 8 8 u n J p.Y # o =     ",
"        _ %.,.,.,.,.,.,.,.,.,.:.X.h f l C 2.4.7.8.8.8.8.8.6.5.3.1.x l a r e e y | ..%.,.,.,.@.` 0 , X + + + # Q d.P # o % %     ",
"        _ %.,.,.,.,.,.,.,.,.,.,.,.,.-...h f e p a a g a a p e 8 y } | ..#.%.:.,.,.,.,.,.,.%.( 2 X @ @ O $ A I Q A X > = = %     ",
"        _ O.,.,.,.;.$.+.$.>.,.,.,.,.,.,.,.:.%.#.#.X.X.X.#.#.=.>.,.,.,.,.,.,.,.,.,.,.,.,.,.' 4 O @ @ O # E G @ @ X < a 2.l       ",
"          ] @.$.O.[ ^ f q ' %.,.,.,.,.,.,.,.,.,.,.,.,.,.,.,.,.,.,.,.,.,.,.,.,.,.,.,.,.,.@.9 + O @ @ $ E Q # O + * k 6.9.l %     ",
"            _ ) q 3 o @ # s [ ,.,.,.,.,.,.,.,.,.,.,.,.,.,.,.,.,.,.,.:.$.@.$.:.,.,.,.,.%.' 4 O O # Y ! U $ O + - w 6.9.8.l       ",
"                < o @ O A K ) %.,.,.,.,.,.,.,.,.,.>.,.,.,.,.,.,.,.,.O.( q ^ ' [ O.@.O./ j T H A W W m O @ + - = 1.8.9.8.g       ",
"                % - $ R F M ^ %.,.,.,.,.,.,.,.+.o.] [ $.,.,.,.,.,.O.~ > @ X c p 9 8 0 , A s.s.! I $ X @ X - w <.8.8.8.7.a       ",
"                  ; m s.! # q O.,.,.,.,.>.+.[ ^ u , 4 ^ +.,.,.,.$.` 3 @ @ @ @ O X + O @ + $ $ N I I @ @ - r 3.9.9.9.9.3.w       ",
"                  * . M G G , ` %.,.,.%.[ 9 4 c @ X @ v ^ O.$.+.` 4 @ @ @ @ @ @ @ @ O @ O @ O A s.I + - w 2.9.9.9.9.7.a %       ",
"                    = * , E Y *./ [ [ ` p X @ @ $ S m @ o u 9 8 , @ @ @ @ @ @ O @ O S G O @ @ @ b - * a 4.9.9.9.8.3.a %         ",
"                      a i , M ! L Z V c O @ @ O H C.s.D @ @ $ m P I H m O O @ @ @ @ m m O + . ; = a <.7.9.9.9.9.1.w %           ",
"                      a 4.x = M I Y ! I N @ @ @ $ G P ! R E W W R I I N @ @ + o > > o . - * w z 2.8.9.9.9.8.6.x w               ",
"                      i 6.9.<.= . X S I S + + + O O O m H F $ $ @ F W m . - * 1 d d a w g <.6.9.9.9.9.9.9.1.a %                 ",
"                      % <.9.9.3.l 1 ; < < * 1 = * ; - - > . . o o c n < = g &.5.8.8.8.8.8.8.9.8.9.9.8.8.x w                     ",
"                        a 4.9.9.8.5.1.&.<.<.5.5.2.&.x z k a w w w a l &.5.8.9.9.9.9.8.9.9.9.9.9.9.8.1.a %                       ",
"                        = p 4.9.9.9.9.9.9.9.9.9.9.9.9.9.8.8.7.6.6.8.8.9.9.9.9.9.9.9.9.8.9.9.8.6.<.a w                           ",
"                          % w &.8.9.9.9.9.9.9.9.9.9.9.9.8.8.9.9.8.9.9.9.9.9.9.9.9.9.9.9.8.3.z w w                               ",
"                              % a <.6.8.9.9.9.9.9.9.9.9.9.8.9.9.9.9.9.8.9.9.9.9.9.8.8.1.a w %                                   ",
"                                  % w l 1.4.6.8.9.9.9.9.9.9.9.9.9.9.9.8.9.8.5.3.C l a % %                                       ",
"                                      % % w w a k x <.<.1.3.4.3.4.2.<.C l a w w %                                               ",
"                                                % % % 5 5 = w 5 w % % %                                                         "
};
