/* XPM */
static char *c2f3d4c7d51f4653ef66823681dc11e4OOLfYIxP1IGEfSqi[] = {
/* columns rows colors chars-per-pixel */
"64 64 229 2 ",
"   c None",
".  c #1B6A35",
"X  c #1F7837",
"o  c #257A39",
"O  c #387A3B",
"+  c #266F34",
"@  c #417C3B",
"#  c #6C6533",
"$  c #247D41",
"%  c #C63828",
"&  c #D43B25",
"*  c #D93826",
"=  c #D63B31",
"-  c #E23B26",
";  c #E93C25",
":  c #9B592D",
">  c #8A5B31",
",  c #BD432E",
"<  c #B84030",
"1  c #8F632F",
"2  c #BA7737",
"3  c #B16D33",
"4  c #C94929",
"5  c #D54C26",
"6  c #D54B29",
"7  c #D94728",
"8  c #CA5B28",
"9  c #D85A29",
"0  c #CB5537",
"q  c #E64827",
"w  c #E4522A",
"e  c #E75828",
"r  c #F15929",
"t  c #DC642A",
"y  c #D56D2C",
"u  c #DB6C2C",
"i  c #D56627",
"p  c #DC732C",
"a  c #DD792E",
"s  c #CA6939",
"d  c #DA6933",
"f  c #C67839",
"g  c #DD7C33",
"h  c #D37335",
"j  c #CD6329",
"k  c #EC6429",
"l  c #E46C2A",
"z  c #E6682A",
"x  c #F16429",
"c  c #E3732B",
"v  c #E3792D",
"b  c #EB742D",
"n  c #F37B2D",
"m  c #E07D32",
"M  c #EC7C33",
"N  c #E67437",
"B  c #F27830",
"V  c #B3524D",
"C  c #B1704C",
"Z  c #AA5962",
"A  c #9D677E",
"S  c #9B796F",
"D  c #B07065",
"F  c #C85D4A",
"G  c #CA684A",
"H  c #C97549",
"J  c #DB7945",
"K  c #C47956",
"L  c #C97255",
"P  c #2A843B",
"I  c #2C893D",
"U  c #29813A",
"Y  c #3C8D3E",
"T  c #35863B",
"R  c #3B923E",
"E  c #42843D",
"W  c #498D3C",
"Q  c #588C3B",
"!  c #48973E",
"~  c #57963B",
"^  c #6D973B",
"/  c #749C3A",
"(  c #789B3B",
")  c #7DA038",
"_  c #348C42",
"`  c #3D8F41",
"'  c #3C8243",
"]  c #3B9342",
"[  c #3E9942",
"{  c #369241",
"}  c #2F8142",
"|  c #439B44",
" . c #4B9C42",
".. c #459642",
"X. c #519A41",
"o. c #4AA246",
"O. c #46A144",
"+. c #50A040",
"@. c #B58437",
"#. c #AA863D",
"$. c #82A239",
"%. c #8EAA39",
"&. c #86A438",
"*. c #95AD38",
"=. c #9CB239",
"-. c #A5B736",
";. c #B3BF34",
":. c #D8863A",
">. c #C68934",
",. c #EA812E",
"<. c #F5822D",
"1. c #F6882F",
"2. c #E28233",
"3. c #E68935",
"4. c #EC8B34",
"5. c #E28339",
"6. c #E68B3A",
"7. c #EA8D39",
"8. c #EA8435",
"9. c #F38132",
"0. c #F48E33",
"q. c #ED933B",
"w. c #ED9B3D",
"e. c #E9973A",
"r. c #F59335",
"t. c #F3953A",
"y. c #F49C3C",
"u. c #F79937",
"i. c #CBA13D",
"p. c #F6A23D",
"a. c #FAA53E",
"s. c #FBA83F",
"d. c #B4C033",
"f. c #AF8B4A",
"g. c #BDA65B",
"h. c #B88466",
"j. c #A6817A",
"k. c #BA9379",
"l. c #AE9174",
"z. c #9AA163",
"x. c #C58A47",
"c. c #D88A49",
"v. c #D08458",
"b. c #CD9555",
"n. c #E58E40",
"m. c #EB9541",
"M. c #EC9C44",
"N. c #E69548",
"B. c #F39D45",
"V. c #E29751",
"C. c #ECA34A",
"Z. c #EFA746",
"A. c #F5A443",
"S. c #FAA442",
"D. c #FAAA43",
"F. c #F3A54B",
"G. c #F6AB4D",
"H. c #FAAC4C",
"J. c #F8A749",
"K. c #FAB04E",
"L. c #F7AD54",
"P. c #FBB253",
"I. c #F8B459",
"U. c #E8A85A",
"Y. c #C9956A",
"T. c #C78E6F",
"R. c #D2A66F",
"E. c #FABA64",
"W. c #E1AC68",
"Q. c #9F7D89",
"!. c #7C94BE",
"~. c #709ACB",
"^. c #53A8D9",
"/. c #6AA6D4",
"(. c #4FB8E6",
"). c #63B4E2",
"_. c #73C3E9",
"`. c #9C8F94",
"'. c #B69886",
"]. c #AA9996",
"[. c #B39A92",
"{. c #BBA792",
"}. c #B9A38F",
"|. c #968FA1",
" X c #8895BC",
".X c #9EA4B7",
"XX c #AAAAB7",
"oX c #A7B3B7",
"OX c #AEACAD",
"+X c #C19A86",
"@X c #CCAC82",
"#X c #C0B1A5",
"$X c #859BCB",
"%X c #899ECB",
"&X c #8499C7",
"*X c #879FD0",
"=X c #8DA3CC",
"-X c #88A0C7",
";X c #91A5CD",
":X c #96AACE",
">X c #9AA8C8",
",X c #8CA4D1",
"<X c #88A9D4",
"1X c #94AAD3",
"2X c #9BAED4",
"3X c #95ABD6",
"4X c #9CB2D5",
"5X c #9CB2D9",
"6X c #93B6DA",
"7X c #88B1D9",
"8X c #A1ADCA",
"9X c #A6B2CD",
"0X c #B7BAC9",
"qX c #A3B3D3",
"wX c #A3B9DB",
"eX c #A8B9D9",
"rX c #A7BCE0",
"tX c #90B6E0",
"yX c #B5C3DC",
"uX c #A5C4DF",
"iX c #91C8E7",
"pX c #AAC1E2",
"aX c #B9C9E3",
"sX c #A6D9F3",
"dX c #A8D3EA",
"fX c #BAE2F6",
"gX c #C5D2E9",
"hX c #C3CFE4",
"jX c #D5E0F0",
/* pixels */
"                                                                                                                                ",
"                                                                                                                                ",
"                                                            ..                                                                  ",
"                                                            X.                                                                  ",
"                                                             . .                                                                ",
"                                                            o. .                                                                ",
"                                                }         ]  . .      Q                                                         ",
"                                                | ..      ] o. .    ^ /                                                         ",
"                                                ! !       ..o. .    $.)                                                         ",
"                                                 . .      | o. .    %.$.      ....                                              ",
"                                          (        .I     | o.|   ( =.$.    ] |                                                 ",
"                                          %.$.     .]     |  .|   %.-.&.    | O.                                                ",
"                                          =.=.    | | P   O.O.[ Q -.-.    ..O.|                                                 ",
"                                            -.*.  ..O.R   [ | ] / d.-.    | o.]                                                 ",
"                                            -.-.( T | [ $ [ | ] &.;.=.   .o.o._                                                 ",
"                                              -.=.W | | U R | _ %.;.$.R  .o.| ' $                                               ",
"                                              =.=./ _  .} ] ..` %.-.W | o.| _ ^ Q                                               ",
"                                        T     ( -.*...| } ] | R %.( ` O.| ` ~ $.                                                ",
"                                        T +.    %.*.^ ] I { [ Y ^ W O.| ] W *.^                                                 ",
"                                          T ~ ! Q &./ ` I { { I E [ [ Y T %.$.    X.                                            ",
"                                            P ! ! Q ^ E P I _ X _ | _ P ) &.Q X.! E                                             ",
"                                              U Y X.Q @ U X X I [ } O Q ^ ~  .R P                                               ",
"                                                o U W T . . . O + + E W ! R T o                                                 ",
"                                                    # 1 : > > : : 1 # O o X                                                     ",
"                                                9 t N M l u 8.l z b z 8                   :X>XqX                                ",
"                                              9 d M m.m a r.0.r.M u u t l 9               aXyXeX                                ",
"                                          9 z 1.,.u 9 v r.r.2.r.r.c y u 9.B 9             aXeX                                  ",
"                                        6 z <.1.,.p v p 4.u.y.r.c 2.y.,.p m 9.d           gXhX                                  ",
"                                      9 k ,.r.,.a u.s.p.2.2.y.2.7.S.y.t.0.p u l 4         gXgX                                  ",
"                                    V e n 1.v a p.S.D.K.D.2.j 6.L.P.B.M.J.t.d 8 9         aXaX                                  ",
"                                    4 9 b c 2.D.H.N.L.I.M.g 6.g q.K.L.G.H.7.u b e 4       eX9X                                  ",
"                                  0 k l j u p.K.I.I.I.e.p Z.D.w.g 7.J.H.t.p 8.6.H D  XqXyXjXhX                                  ",
"                                  w B c g D '.@XU.G.5.a p.s.s.s.S.2.g 4.p 4.u.Y.8X8X=XyXaXgXrX                                  ",
"                                & r z h ].~./.7X|.h a a.s.a.p.s.S.D.2.j a A.D.V.D D V                                           ",
"                                7 e i k.~.^.).).<XD y.D.D.p.6.H.H.G.:.6.g 3.H.H.t.z 4                                           ",
"                                - 9 5.OX/.iXsX_.~.j.m G.H.H.F.P.H.5.7.D.y.g 3.J.y.l 5                                           ",
"                              % * z N.8XtXsXsXuX6Xl.5.m H.H.P.L.5.3.a.s.s.p.a 7.4.t e 5                                         ",
"                              % 6 B n..X6XdXdXpX-Xb.s.6.:.F.H.q.:.s.s.a.a.D.y.a u c k 5                                         ",
"                              & q t 7.k.,X5X5X=X`.A.D.D.q.a a 2.a.s.D.m.F.H.K.m.8 v x 9                                         ",
"                              - r c t d h.|.|.S :.B.D.D.D.3.8 7.D.D.P.F.G.P.H.5.n.u z w                                         ",
"                              * k n c j 2.M.C.G.F.C.P.P.B.:.M.g m.P.P.P.K.H.5.n.D.4.t 5                                         ",
"                              * k c 5.t.v m F.P.P.P.P.F.g F.D.p.m 6.K.K.G.6.m a.a.r.B 5                                         ",
"                            & ; e l y.a.a.2.p B.P.P.G.a w.s.s.s.p.3.5.y.4.g p.s.p.r.<.w 4                                       ",
"                            & - 9 M r.a.s.s.q.p 3.M.a e.a.S.a.D.D.D.q.y u y.D.a.7.4.<.w <                                       ",
"                            % & k <.r.y.s.D.s.y.h G c.p.D.H.N.C.P.I.B.y y w.H.a.u.q.M 6 4                                       ",
"                            < & x n r.6.a.s.G.R.OX9X0X#XW.I.L.E.E.I.g q.q.p B.H.J.J.N 6 4                                       ",
"                            % & e 9.r.t.D.L.@XyX3X1X4XrXoXW.E.E.E.m 8.p.W.].[.R.G.B.9 q 6                                       ",
"                            & - 5 M A.G.I.W.XX$X3XrXwX1X5XOXE.E.7.m p.W.0X6X6X:XR.h 9 w =                                       ",
"                            * ; q 9 4.p.q.+X,X,XpXwXwXwX,X9Xc.2.p p.G.{.eX(.(./..Xs k w &                                       ",
"                            * ; q e i v y OX$XwXeXeX2XwX3X1Xv.y q.s.C.XX7X).sXiX8XL x q &                                       ",
"                            % * q x b 8 H >X&X9XeX8X1X:X,X,Xj.p S.D.C..X7XiXfXwX>XL r *                                         ",
"                            % * ; r l u K :X&X2X&X!.&X=X=X3X@Xa 7.K.G.].4X7X4XqXXX0 q *                                         ",
"                            V * ; w 9 9.Y.2X%X1X!.=X&X;X%X3X{.y.a M.P.U.].qXqX0XL w F V                                         ",
"                              V F s M n T.1X%X:X>X&X=X%X;X3X{.p.w.a A.H.q.K T.J d F Z V                                         ",
"                              S C f c.:.k.1X&X:X:X=X&X8X1X*X}.H.D.4.a 4.p c b b G D Q.Q.                                        ",
"                              z.f.f.:.>.l.5X%XwXwXqX2X1X=X1X'.C.G.r.>.u e b b J T.A Q.                                          ",
"                              l.f.#.>.2 Y.>X$XrXwXqX4X4X,X4XR.w.Z.i.>.3 y m N c.Y.l.].                                          ",
"                                g.x.x.2 f..X$XeX5X2X4X4X=XoXb.4.q.i.>.@.3 @.v.J H '.                                            ",
"                                    #.f 3 >X&X4X4X5X5X4XoXOXb.:.>.@.@.#., C f.v.R.                                              ",
"                                              %X=X1X1X;XOXoXG @.2 2 x.3 3 >                                                     ",
"                                                                                                                                ",
"                                                                                                                                ",
"                                                                                                                                ",
"                                                                                                                                "
};
