/* XPM */
static char *_98e41173c5e4bdaac5c52235af7ac6cPU4ZGnI5UcNnAPpw[] = {
/* columns rows colors chars-per-pixel */
"64 64 215 2 ",
"   c None",
".  c #030303",
"X  c #0B0B0B",
"o  c #121313",
"O  c #1B1B1B",
"+  c #3A1C06",
"@  c #382205",
"#  c #3C2B18",
"$  c #112A2A",
"%  c #2B2B2B",
"&  c gray19",
"*  c #4A0102",
"=  c #490808",
"-  c #4E100A",
";  c #54190A",
":  c #4C0E11",
">  c #412D16",
",  c #593814",
"<  c #52300E",
"1  c #683E08",
"2  c #663918",
"3  c #4F1B22",
"4  c #531D22",
"5  c #582647",
"6  c #643A34",
"7  c #7C490A",
"8  c #77470D",
"9  c #6C4616",
"0  c #784B15",
"q  c #7A5524",
"w  c #7C7C38",
"e  c #6B702B",
"r  c #1E4647",
"t  c #275E5E",
"y  c #3C7979",
"u  c #4F4F4F",
"i  c #684242",
"p  c #7A6F51",
"a  c #696D67",
"s  c #796060",
"d  c #7A7C71",
"f  c #B61F12",
"g  c #B02C0A",
"h  c #B63936",
"j  c #CC0C09",
"k  c #EB0304",
"l  c #844D06",
"z  c #844F09",
"x  c #884F06",
"c  c #8C5305",
"v  c #8B580F",
"b  c #965807",
"n  c #814F11",
"m  c #895911",
"M  c #935F1E",
"N  c #A45A05",
"B  c #98621A",
"V  c #AC6402",
"C  c #A76102",
"Z  c #B16601",
"A  c #B36801",
"S  c #82672A",
"D  c #897936",
"F  c #8B7627",
"G  c #B64F50",
"H  c #B95A5C",
"J  c #8B6D49",
"K  c #83676B",
"L  c #B06E7B",
"P  c #96842F",
"I  c #84843B",
"U  c #8D8D3D",
"Y  c #878736",
"T  c #8A913A",
"R  c #9A9B3C",
"E  c #94943D",
"W  c #AB8D2C",
"Q  c #A6A63A",
"!  c #B6AC39",
"~  c #B9B53E",
"^  c #ABBD31",
"/  c #C79B26",
"(  c #AECB00",
")  c #B3CD04",
"_  c #B6D007",
"`  c #B8CC33",
"'  c #BFD235",
"]  c #ACC531",
"[  c #C3D914",
"{  c #CBDD1C",
"}  c #C0D611",
"|  c #CDDB3B",
" . c #C2D33B",
".. c #D3DE37",
"X. c #CDD62E",
"o. c #CFE021",
"O. c #DDE92E",
"+. c #D8E528",
"@. c #D3E03C",
"#. c #DCE73C",
"$. c #E4EE34",
"%. c #E7EF3C",
"&. c #E7F036",
"*. c #ECF23C",
"=. c #E7F038",
"-. c #828641",
";. c #939443",
":. c #9D9E42",
">. c #90914D",
",. c #929358",
"<. c #ACAC43",
"1. c #A3A344",
"2. c #ACBA48",
"3. c #B7B743",
"4. c #A1AF5C",
"5. c #AFBA50",
"6. c #B4B457",
"7. c #9F9F74",
"8. c #80887C",
"9. c #B99073",
"0. c #B4B464",
"q. c #ACAE6C",
"w. c #C5B15F",
"e. c #E8BB48",
"r. c #D1BC6A",
"t. c #BED140",
"y. c #BFC15B",
"u. c #B5C542",
"i. c #C4C345",
"p. c #CCCC46",
"a. c #CBCB49",
"s. c #C9C34B",
"d. c #CCD949",
"f. c #C8D742",
"g. c #D6D748",
"h. c #C9C958",
"j. c #C8D856",
"k. c #D6D956",
"l. c #D1CB4B",
"z. c #E1D548",
"x. c #F3D447",
"c. c #EFC845",
"v. c #DCE642",
"b. c #DEE840",
"n. c #E3EB43",
"m. c #E4E449",
"M. c #ECEC4C",
"N. c #E5EB46",
"B. c #F6E74B",
"V. c #EEF345",
"C. c #F2F644",
"Z. c #F7FA46",
"A. c #F4F54B",
"S. c #F6F94A",
"D. c #FEFE4D",
"F. c #FEF74D",
"G. c #F5ED55",
"H. c #FDF658",
"J. c #C9C965",
"K. c #CED56C",
"L. c #EDD866",
"P. c #EBC674",
"I. c #F0CA61",
"U. c #DBE665",
"Y. c #DBE673",
"T. c #F7E468",
"R. c #897681",
"E. c #CA769E",
"W. c #CC7CA5",
"Q. c #679898",
"!. c #5DA09F",
"~. c #67A8A8",
"^. c #75A6A6",
"/. c #9D9D81",
"(. c #9A8E91",
"). c #A59B9A",
"_. c #A8A982",
"`. c #B3B490",
"'. c #93BEBE",
"]. c #9CB1AB",
"[. c #ACA6A6",
"{. c #B4B6AA",
"}. c #A5B9B8",
"|. c #BFBABA",
" X c #B3AFA9",
".X c #C08987",
"XX c #CEBC94",
"oX c #E188B6",
"OX c #C4BDB3",
"+X c #CACB89",
"@X c #C7C799",
"#X c #DBC298",
"$X c #C1C1AE",
"%X c #C6C7B7",
"&X c #DAD5BB",
"*X c #8CC6C5",
"=X c #A4C8C9",
"-X c #BBD3D3",
";X c #CCCCC2",
":X c #C5C8C4",
">X c #D5D5C3",
",X c #DBDAD4",
"<X c #CFD4D0",
"1X c #F1DFDB",
"2X c #E0E2D7",
"3X c #F9E7DB",
"4X c #DFDFE1",
"5X c #D9E2E2",
"6X c #EBECEA",
"7X c #E5E5E5",
"8X c #FAEEEF",
"9X c #ECF3F3",
"0X c #FEFDFE",
"qX c #F4F4F5",
"wX c #FDF4EE",
/* pixels */
"                                                                                                                                ",
"                                                                                                                                ",
"                                                                                                                                ",
"                                                                                                                                ",
"                                                                                                                                ",
"                                                                                                                                ",
"                                                                                                                                ",
"                                                                                                                                ",
"                                                                                                                                ",
"                                                                                                                                ",
"                                                  f.      d.d.      t.    f.d.                                                  ",
"                                          b.V.N.V.S.n.| b.S.D.N.N.S.S.n.#.Z.D.N.@.%.d.                                          ",
"                                          N.D.D.D.D.D.D.D.D.D.D.D.D.D.D.D.D.D.D.D.D.#.                                          ",
"                                          #.D.{ +.D.D.D.D.D.D.D.D.D.D.D.D.D.D.D.D.D.'                                           ",
"                                          @.=.( _ D.F.A.p.D.G.D.D.m.M.3.D.A.D.O.=.D.`                                           ",
"                                          | =.( { V.Q a.;.p.3.D.A.Q i.E i.i.D.=.C.D.|                                           ",
"                                          | Z.{ $.A.,.%X,X{.6.D.G.q.$X;X/.a.D.D.D.D. .                                          ",
"                                          v.D.D.D.k.2X0X0X0X>Xk.K.6X0X0XqX@XM.D.D.V.]                                           ",
"                                          @.Z.O.A.@X0X0X-X*X<X`.%X=X*X5X0X6XJ.D.D.%.                                            ",
"                                          ' =.} v.&X0X9X~.t ^.}.}.y t '.0X0X+XD.D.n.                                            ",
"                                            C.*.m.>X0X9X!.$ Q. X}.y r '.0X0X+XD.D.M.                                            ",
"                                            S.D.A.XX8X0X=X~.].0.q.^.^.5X0X1Xr.D.D.#.                                            ",
"                                            S.D.x.e.P.wX0X9X|.N.k.>XqX0X3XI.c.x.D.|                                             ",
"                                            N.F.x.B.B.&X7X%X0.M.a.`.7X6X#Xz.z.x.F.v.                                            ",
"                                            @.D.B.i.i.z.h.g.A.D.M.M.h.h.s.D w.*.D.v.                                            ",
"                                            @.D.D.p., P m.D.D.D.D.D.A.~ 2 2 M.F.D.|                                             ",
"                                            N.D.D.A.9 = < D w.w.h.J.q - * S D.D.S.`                                             ",
"                                            n.Z.C.D.D * = s 3XK (.,X5 * * ! D.D.S.                                              ",
"                                            ^ $.o.D.g.; * i ).i s ).4 * 2 X.[ *.Z.                                              ",
"                                            5.Z.C.D.=.F * : 4 : 4 3 = : ! [ ( O.Z.T                                             ",
"                                            k.D.D.$._ ..S L oXE.oXW.6 W D.o._ *.N.`.                                            ",
"                                            | D.D.o.( &.G.w.9.(.9.9.l.D.D.*.*.D.U.2X                                            ",
"                                            Y.S.D.&.o.Z.H.T.L.P.L.L.H.D.#.*.D.D.Y.6X                                            ",
"                                          u 4.S.D.Z.D.D.D.D.G.H.T.A.D.S.#.*.Z.D.2.d                                             ",
"                                            -.u.j.j.d. .d.U.K./ W j.k.u.`  .] ^ e e                                             ",
"                                            7.).        {.4X;Xh H ;X%X            w                                             ",
"                                            _.[.,X>XOX    [. XG L %X              I                                             ",
"                                          U _.J M q n M v 9 0 j f 9 n b 9 < 8 9   Y                                             ",
"                                          :.,.7 l + > b c @ ; k j @ 8 N < @ 8 7   U                                             ",
"                                          :.  8 V V V Z Z V N f g V Z A V Z V 7   U                                             ",
"                                          :.  1 c b c c c c c 7 n c x z z z z ,   R                                             ",
"                                          a.R     > 8 7 7 <       > 7 x 7 #     Y g.                                            ",
"                                        <.F.a.      8 v m           0 m 0       3.D.i.                                          ",
"                                      -.1.g.2.        Y               2.        1.a.<.I                                         ",
"                                        ;.;.>.        R               <.        p T ;.-.                                        ",
"                                        ;.;.          a               8.          R I U                                         ",
"                                                      R.              (.                                                        ",
"                                                      [.              |.                                                        ",
"                                                      :X              |.                                                        ",
"                                                      a &           % u o O                                                     ",
"                                                  X . . .           . . o %                                                     ",
"                                                  . . X o             O . .                                                     ",
"                                                  X X                   X X                                                     ",
"                                                                                                                                ",
"                                                                                                                                ",
"                                                                                                                                ",
"                                                                                                                                ",
"                                                                                                                                ",
"                                                                                                                                ",
"                                                                                                                                ",
"                                                                                                                                ",
"                                                                                                                                ",
"                                                                                                                                ",
"                                                                                                                                "
};
