/* XPM */
static char *_6b91be295624aefaff1c4498723e8203UeCtfyqzqlszrbk[] = {
/* columns rows colors chars-per-pixel */
"64 64 194 2 ",
"   c #8E7D6B",
".  c #947F6C",
"X  c #957F72",
"o  c #93826E",
"O  c #99856D",
"+  c #8D8171",
"@  c #958573",
"#  c #998574",
"$  c #978976",
"%  c #9C8A76",
"&  c #9B8678",
"*  c #96897B",
"=  c #9C8C7B",
"-  c #9E907E",
";  c #A38F77",
":  c #A28E7C",
">  c #A3937D",
",  c #9B8E81",
"<  c #9E9282",
"1  c #A48E81",
"2  c #A39482",
"3  c #A89683",
"4  c #A79883",
"5  c #AB9A84",
"6  c #A79A8A",
"7  c #AC9D8B",
"8  c #B29C85",
"9  c #B29E8A",
"0  c #AFA18E",
"q  c #B3A28D",
"w  c #BAA68D",
"e  c #BDA88E",
"r  c #AEA190",
"t  c #B4A593",
"y  c #B8A692",
"u  c #B7A895",
"i  c #BBAA94",
"p  c #B7A798",
"a  c #B7AA99",
"s  c #BCAC9B",
"d  c #BEB09F",
"f  c #BFB3A2",
"g  c #C1AB8E",
"h  c #C2AD95",
"j  c #C1AE9A",
"k  c #C4B097",
"l  c #C4B19B",
"z  c #CAB59D",
"x  c #CEB99C",
"c  c #D6BA95",
"v  c #D1B79E",
"b  c #D5BB9D",
"n  c #D9BE9E",
"m  c #C3B4A1",
"M  c #CDB7A1",
"N  c #CDB9A3",
"B  c #C7BBA9",
"V  c #CCBEAC",
"C  c #D4BDA5",
"Z  c #D9BEA3",
"A  c #D5BFA8",
"S  c #CABDB4",
"D  c #DBC19E",
"F  c #E1C49D",
"G  c #CDC2AD",
"H  c #D7C2A5",
"J  c #DDC3A4",
"K  c #D5C2AB",
"L  c #DCC5AB",
"P  c #DEC9AD",
"I  c #D4C5B3",
"U  c #DBC7B1",
"Y  c #D5C9B6",
"T  c #DDCAB3",
"R  c #D5CBBA",
"E  c #DBCDBB",
"W  c #DCD1BD",
"Q  c #E2C5A5",
"!  c #E8C7A4",
"~  c #E4C9A6",
"^  c #EACBA6",
"/  c #E2C7AA",
"(  c #E4CBAC",
")  c #EACDAD",
"_  c #F1CDAB",
"`  c #EBD1AE",
"'  c #F1D3AE",
"]  c #E1C7B0",
"[  c #E4CDB3",
"{  c #E9CEB1",
"}  c #E3CFBA",
"|  c #E6D1B4",
" . c #ECD2B4",
".. c #EDD8B7",
"X. c #E4D2BB",
"o. c #ECD5BA",
"O. c #EDDABC",
"+. c #F1D4B5",
"@. c #F1D8B7",
"#. c #F2D6BA",
"$. c #F3DABC",
"%. c #F9DBBE",
"&. c #DBCEC5",
"*. c #DED2C2",
"=. c #DFD7CC",
"-. c #E3D3C2",
";. c #EAD6C2",
":. c #E6D8C4",
">. c #EDDAC4",
",. c #E3D9CD",
"<. c #ECDCCC",
"1. c #EDDCCA",
"2. c #F1D7C0",
"3. c #F1DBC2",
"4. c #F1DDC3",
"5. c #F5DDC1",
"6. c #F4DCC2",
"7. c #F1DBC4",
"8. c #F2DBC5",
"9. c #F3DDC5",
"0. c #F1DFC7",
"q. c #F3DFC7",
"w. c #F3DFC6",
"e. c #F1DDC6",
"r. c #F6DDC7",
"t. c #F2DCC3",
"y. c #F8DDC1",
"u. c #F1DFC9",
"i. c #F0DECA",
"p. c #F3DECA",
"a. c #F7DEC8",
"s. c #F2DECD",
"d. c #F4DFCE",
"f. c #F2DECA",
"g. c #E3DBD0",
"h. c #E5DBD1",
"j. c #E7DDD1",
"k. c #EBDED1",
"l. c #EEE0C6",
"z. c #EFE0CD",
"x. c #F1E0C6",
"c. c #F1E0C4",
"v. c #F5E0C5",
"b. c #FAE2C3",
"n. c #F3E1C9",
"m. c #F3E1CB",
"M. c #F5E1C9",
"N. c #F4E0C8",
"B. c #F5E3CB",
"V. c #F4E2CA",
"C. c #F7E3CB",
"Z. c #F4E3C9",
"A. c #F3E1CD",
"S. c #F0E1CE",
"D. c #F7E5CF",
"F. c #F4E2CC",
"G. c #F9E7CF",
"H. c #FAE6CE",
"J. c #F9E5CD",
"K. c #FAE9CE",
"L. c #EAE1D7",
"P. c #EEE1D0",
"I. c #ECE4D9",
"U. c #EFE2D9",
"Y. c #F1E1D1",
"T. c #F2E2D2",
"R. c #F6E5D1",
"E. c #F2E6D6",
"W. c #F7E7D7",
"Q. c #F4E4D4",
"!. c #F5E4D3",
"~. c #F9E6D2",
"^. c #FCE7D4",
"/. c #F9E6D2",
"(. c #F7E9D6",
"). c #FBE9D3",
"_. c #FCEAD4",
"`. c #FCEAD4",
"'. c #F7E7D8",
"]. c #F4E7DB",
"[. c #F9E7D9",
"{. c #F4E8DA",
"}. c #F7EBDD",
"|. c #F7EBDF",
" X c #F5E9DD",
".X c #FBEBDB",
"XX c #F9EDDF",
"oX c #FBEFDF",
"OX c #FEEEDE",
"+X c #FCECDB",
"@X c #FFF0DA",
"#X c #F6ECE2",
"$X c #FAEDE2",
"%X c #FEF2E5",
/* pixels */
"G W W X.X.E I G Y I Y I K V I S R ,.,.,.,.,.k.I.k.h.h.,.,.&.R f Y -.,.:.:.X.E I K I G G G R E I Y *.-.-.:.W E E E E -.:.:.*.R Y ",
"X.x.Z.e.q.q.>.>.c.O.e.f.p.Z.Z.r.&.[.$X$X[.Y.[.Q.#X#XXX|.$XQ.$X<.1.!.R.T.`.`.F.p.c.x.Z.Z.1.l.R.p.>.p.m.>.Z.Z.B.K.J.m.f.a.F.Z.x.N.",
"{ @. ./ ~ {  . . .) {  .{  .{ { [ r.2.o.;.o.8.8.F.T.Q.Q.Q.<.[.<.[ o.} [ o.3.$.o.) ( +. . .{  . .~ .. .|  .|  . . .{ { +.#.+. .) ",
"(  .) J Q ( | | @.{ ( ) { { { { [ 8.;.;.p.r.r.o.;.1.p.s.T.-.;.E }  .( (  .@.%.#.) ) ) ) Q Q ) ) J `  . .@. . .+.) ) { +.+._ ) / ",
"| 3.@. . .5.6.6.| ( ( { / [ X.X.;.Q.s.>.s.Y.Q.<.;.e.r.8.W.d.d.;.)  .( Q ) +.' { $. . .{ J ~ ~ H ~  .@.+.#.#.#.#.#.#.{ ( / ( [ { ",
"X.o. .|  . .| } o.o.O.3.o.o.;. .-.Q.<.-.E } <.Y.e.e.;.;.~.f.d.>.{ #.#.{ {  .+.) #.o.o.3...O. .J L { ( / ] ( / [ ..o. .( / ( L / ",
"{ { ( ~ ) ~ P (  .|  ...{ [ ( / -.Q..X^.Q.<.k.8.p.m.8.;.~.f.q.;.{  ...[ ) ( Q J L [  . . .$. .J {  . .| { { (  .#.o.+. .#.#. .( ",
"{ ( ~ ^ ` ^ )  ...` ( { ~ ) ( / ;.!.T.d.!.!.Y.8.1.T.1.>.^.e.;.o.| ;.#..... .( Z / {  .{ ` @. .D J |  ...#.@. ...) / Z n / { { ~ ",
"F ' ) ) #.+.+.+.` +.)  .+.^ { y.z M K } s.^.[.s.s.+Xm.p.~.m.;.L ( @.b.y.@.$.#. .@.) ) [ #.a.#.( ( ..%. .( #.y.@./ { #.%.#. .#.Z ",
"g z h s z z z j w h e e w 5 3 8 4 4 5 7 p j d p s B d a s l j q w i h i e e i w g w 8 3 q i h y j k l l h h h e h h j m j h j 9 ",
"- - * , , = , + O > % % = = 3 3 2 < = * * = , = * < = , = = - * = = = = = = = & % > > : 2 < 2 < : = = - = > - @ @ * = 2 , * 1 , ",
"{.{.#X#X#X#X$X,.E l.:.:.>.1.p.1.F.F.m.8.>.1.>.>.<.Q.T.!.(.P.T.!.l.1.l.J.(.R.l.>.X.1.!.[.!.T.<.>.1.F.F.z.<.(.E.-.h.].$X$X#X#X#X#X",
"#X|.{.$XXX$X%Xk.T 6.6.>.x.>.6.X.#.o.#.o.@..... .} 3.;.3.;.o.;.6.o.} X.o.8.o.} L o.:.r.8.r.8.r.$.O.6.x.;.;.Z.e.X.-.[..XXXU.].$X[.",
".X(.1.1.:.>.1.-.J  .P J (  .@. .+.) ( ) ) ^ Q Q { #.{ {  .{  ...#.{ ( {  . ./ J ( { { X.o. .{ ) { ( { @... .O.o.E ~.!.;.;.s.[.Q.",
"Q.W.;.X.X.W X.E (  .J D J J `  .$.+.) { @.` ) Q )  .) (  .| .. .#. . .~ {  .( L { | ..6.y.$.+.) Q D J ( | } X.o.} Q.1.1.s.s.Q.d.",
"<.{.z.>.F.l.1.1.T  .| ..O. ... .J Z n / +.#.( ~ (  . . .O.O.6.X. .#. .( { #. .~ ( [ { o.#.{ { )  . . . . .O.3.| -.Q.s.Y.[.[.[.Q.",
"-.8.<.8.Y.!.s.} ( o.6.X.{ o.$.o.( (  .@.~ `  .D ( o.{ ) %...{  .#. .#.+.{ @. .J [ | o. . . .( ! ^ ~ ^ ) { #.../ *.XXk.F.F.+Xp.X.",
"} >.d.8.8.d.s.>.J `  .~ +.#. .~ @.) @.+.(  . .J Q @.{ / {  .{  .@.~ J J Q @. .J )  . .) ~ ) ) ` ) ` ` ` ' #.{ Z >.W.;.-.-.>.e.J.",
"8.p.8.o.;.8.p.8.) ` D c Q ) ^ ` @.) { $.#.@.%.) Z #.#.~ { #.#.#.%. . . . .#. .~ ) ) ( / Q (  . .! ) ) ) { #.+.L X.p.o.o.[ } ;.q.",
"<.T.!.+X$X$X8.I (  . .|  . .{ ..q.#.o.#.} [ ( L L o...(  .6.%.%. .#.#... .( ( P (  . . .o.o.6.;. .o.{ / / X.] x ;.$X.XQ.1.F.R.p.",
"6 7 t a m a 6 * t 9 3 & = = 3 q q 5 > > % # % > 5 5 5 q q q q q q 0 5 > 4 5 > > > > > > 5 7 5 2 3 q k z d d 5 o 4 t t 0 6 7 p 6 ",
"t p t q 7 t a f a a p a s p 6 , 7 y s d j s s d a q q u s u t q 7 y t y u y y u y y y y s u t r 7 3 > = % 5 y i 0 0 0 0 t r t 6 ",
":.e.H.J.q.f.J.`.@XF.).R.m.~.~.;.>.).+X@X@X+XK.F.+X`.K.`.`._.^.p.X.R.@X@X+X~.F._.+X_.).).W._.^.J.B.F.).K.B.x.J.J.J.6.Z.`.@XZ..Xl.",
"/ ( { { ) ) ( ( | ( ..$.~  .$.( P  .} (  .$.#...o.o. .{ } .. .] |  .[ | 3...[ [ | X.O.X.o.+.{ X.| ~ ..O. .~ (  . .` ` (  . .5.K ",
"~ ~ ) ` ) ) ^ ! ` ` @.+.%.)  .( ~ ` ' _ ^ ) #.O.#.2.#.{ ^ +._ F L { ( { ..o.[ L P J [ .. .{ { { |  . . .#.' { %...@.{ L Z ] %.{ ",
"( { { ~ (  .+.` ) `  .` #.[  ./ [  .! )  .@.v...X.{  . .{ #.$.{ [  .Q H ( { +. . .| ..$.#.#.{ / o.o.{ P / L / [ O.6.o.{ ( { $.} ",
"[ o.o. .o.$.$. .{ { ) ( #.{ #.( L  .{  .` ( [ K L H L { ] ] } [ Q  .) ) ` `  . ...^ J H J ` { ! | O.O.o.o.} }  .;.>...o. .X.2.| ",
"| $.O.|  .#...) ) { { ) +.)  .Q H )  .+. .(  .`  .|  . .{ o.o.o.J  . .`  .)  .) ` ` ` `  .%.@.~ L  .@. ...%.#.#... .(  .( (  .| ",
"{  .{ J J { ) ! ` @.@.) +.` ` ~ ~ ~ Q ) ~ ) ' ) `  .` ^ Q ( o.[ L  .( J J J (  . .|  . .[  .{ Q J ` ( ^ ! ) { ' +.` ^ ) Q Q ) ) ",
"{ o.$.#.#.%.%. .{ +. .{  .)  .J Q  . .%.+.! ) ) ) ` ` J ~  .$.X.J |  .o. . . .[ O.o.| L Z / { { `  .` ` +. .' +.` ` ) _ / Q ~ Q ",
"V K T } X.X.T K U } { U [ L | L e C [ ;.} L / ( L L / J L X.| T h K L [ X.T K z L K U L L U U U l z x N K J v C P X.[ } ( L ( K ",
"@ @ + @ @ % % = X : & # # o > # @ $ & < 1 & % O # o o O o $ $ @ % : # . O # & % @ . . # o # ; % $ @   o # # @ = o # % % o @ % $ ",
"E R E E R E R I N E T I K G K K W X.I N N B B a u V I Y E E E *.W Y Y Y R R R V V Y V V B f B G Y W W *.*.&.&.S V T E T E W E I ",
"p.e.m.H.J.J.q.o.X.x.x.Z.F.>.l.Z.l.J.q.f.Q.)..Xl.;.Q.1.>.1.>.>.1.1.;.;.;.;.>.;.E m.(.F.F.K.B.K.J.>.B.B.).~.~.+Xs.>.J.~.F.F./.~.~.",
") / / ) ) { / v P  .| O.O.L P  .O.$.o.o.o.o.o.P U T K T } U U T L Z Z A A Z J v /  .( `  .) ` ~ { #.@.#.{ ) #.{ ( | | [ [ } | o.",
"#. .) ) ) +.{ F H | |  .{ H H J  ...[ ) ) ~ | J K K K o.3.T [ X.J K / ] L U / Z ! +. . .@. .+.` #.%.@.@.) ) +.{ {  . .{  . .o.$.",
"%. .{ ) {  . .J D  .....@. .@. . ...) ) ) ) ` ~ K L T o.[ C C C C K [ T L ] [ K J  .{ `  ...#.o./ ( J J J P  .( ) ' ' { #.#.+.+.",
"#. .o.{ { #.o.L c  .` ` { +.+.)  .%.+.@. .` ) J C { X.[ K L [ N K I X.X.} } -.T J ( H J  .o.o.{ L / J ( P { #.( / { #.{ @.$.#.{ ",
"..{ ( ( ( #. .J ( @.{ { o.{ { L J / Q ( ) ~ ( J x [ } [ K [ :.L L U X.T U X.} U J  .{ ( { o.o.{  . .(  . ...#.[ J  .o.( [ #.+.} ",
"#.{ Q Z / @.+.J L J C J { { ] L [ | (  .| (  .( C K T X.T K [ L K P T L H P [ K n @.%. .( Z ( ) ) ` ` @. .#.2.[ J ..o.] /  .#.#.",
"#.%.5.#.#.#.{ / /  .#.@.#.2.#.{ (  .` ) `  . .` x T | [ [ ;.o.X.P X.;.o.| o.} L Z $.$.#.o.( { +. . . .O.%.y.#.[ / ) ' ' ' +.%.%.",
"z x z j j j h w e i i w w y y 9 q w w q w w e w s d l u u j l s u l m l d s y t g k y 9 5 5 e i y y y y y s s y h z z x x C C C ",
": = = & & & & % 2 2 3 = = 3 2 2 o $ $ $ % - > 2 < - = & = < < - = = < 2 < - = = > 2 = < - - > # @ < < < 2 2 , < = = < = < 2 2 , ",
"1.F.R.(.(.T.F.m.z.F.z.T.Q.W.!.T.X.:.1.:.:.l.T.T.>.:.:.1.F.T.l.1.1.T.(.(.!.R.(.+X>.p.R.XX@X+X).W h.%X%X#X%X%XE.[.$XXXXXXX$X$X].E.",
"[ } ..3.6.O.X.X.8.8.8.3.q.e.;.o.2.f.f.8.>.>.e.e.;...o.3.x.6.| X.T 6.q...o.o.3.6.>.;...;.O.$.>.[ ,.!.T.1.Q.m.1.Q.(./.!.W.].Q.Y.<.",
"Z / { ) ) ( (  .#.{ { { { { ~ Q J ( { ~ ~ { { ) @. .{  .#. . .~ J  .@.( /  .#.{ y.y.{ ) Q (  .L :.s.s.>.f.q.2.r.o.;.8.e.>.>.;.;.",
"/ { +.) ) ) @.#.2.#. ... .+. . .n J ( ( (  . .{  .( ( ( `  .{ ~ (  . .)  .$.$.#.` ..~ Q Q Q J b X.1.F.F.Z.3.X.[ O.O.e.f.f.>.;.6.",
"{ +.@.) ~  .#.%.#.#.#.@. . . .) / (  . . . . . .o. . . ... .| L  .| { } ..o.o.{ | $.( ~ +. .) P :.>.T.>.W [ [ P ..O.O.>.8.o.X.o.",
"(  . .( J Z / L J  .$.$.( / o.[ Z Q / ( { #.#.+.{ @.)  . .{  .~ | X. .{ ....` ^ ~ ~  . . . .( J U Z.l.O.:...$.>.O.O.O.:.>.:.>.:.",
"J ) +. .) { { {  . .)  .{  .%./ ) {  .' { { ( / Z ) ) ) ! Q ~ ~ o. .{ J J ~ ` +.F ^ ) ^ )  .( n K x.x.O.$.$... .O.....O...O.l.l.",
"Q / ~ / / { #.%.%. .~ ( { +.+.J J ~ `  .' { { { / +. .@.{ )  .( [ { { J n J ~ ) ` ' ^ D ~ ' ) Q H >...[ [ o.$. ...T | [ L (  .X.",
"L ( o.#.6.r.#...$.c.....o.o.o.] { |  .[ ] ] ] ] [ { [ [ } o. .L } o.>...{ | |  .( ~  .b.b.@./ C C o.e.m.J.J.m.X.T.l.l.>.X.:.>.O.",
"> > > % > 4 6 7 0 t q q 9 3 8 5 > > > % & = = @ & : # & > 3 3 % 5 8 5 > > > 5 > 6 3 5 p s 9 1 & % 2 7 u u y r 6 2 < 4 6 2 2 2 - ",
"q q y s d u y q 5 0 2 3 5 3 5 5 0 y u a f m m a 4 y t t t u m l a a u q y y y q r r 6 1 2 9 p r y t 7 y y t a t r a s d f a a a ",
"@X_.).R.J.~.)._./.`.1.p.~.H.~.J.F._.@XXX@X@X.XR.:.F.m.F.m.m._.`.Z.K.Z.K.`.`.J.o.>.F.~.s.e.B.J.J.N.q.N.`.J.m.F.X.>.K.K.K.+X(.F.+X",
"@.....#...o. .} | l.o.o.$.{ [ { X.O.3.o.X.o.o.} ( ..o. ...o.#.} ` ( P ~ (  .( H [ {  .#. .( !  .) ( (  .{ o.5.( ( .. . .%.o.[ O.",
" . . . .(  . .( (  . . . .) ) { #.#.%. .( { o. .P | [  .....O. .^ ` ..^ ~ ` ( J |  . . .#.@.+.+.[ 6. .Z v [ 6.( J ) `  . .( ( ..",
" .{  .%.@. .| / J J n H ( @.{ {  . . .( K ( { { ( ( ( $.$.( ~ ( ` ..` ( | ....| | | P J L / ] o.o.e.#.{ ~  .O.[ P ~ ( {  . .{ ` ",
"6.{ [ { [ / ( ( ( | X.| o.$.6.$.` `  .) ~  . . .(  .o.....{  .| O.| | P | X...P O.6.O. . .X. ...o.;.#.6.#...;.X.( ( J Z (  .@.%.",
"/ J / {  . . .( D  .%... . .| { Q Q ) ( { @.@.{ J  . .{ ( { ..{ [ | [ (  .O...[ H ( | @.$.@. .$.( ( Z ( ) / { / J  . .(  ... . .",
"` `  . . .@. .J b ) +.{  .` ) Q J Q (  . .%...( J ( ` .. .J ` ' ( { #.$.%.%... .Q ~ / ~ ) ) ) +.) ) ! ^ ^ ) +.) J .. .( Q ~ ~ [ ",
"b.5.O.{ ( ..@.( ~ %.%.#. . .{ @.{  .#.5.5.N.>.[ H  .....O...c...+.$.y.$.o.{ J M @.%. .` +. ._ +. .@.' +.) ) ' Q H  .@. .( ( ( | ",
"z N H K A T T C z K A M h h z A C C C H K L K N y C H z N U [ N N A V x j y 9 5 j k k x C Z C C L T ] ] L H L C e N L T X.U H z ",
"3 : & % & & 1 : 1 = $ @ $ * & 1 : % % # o = > & = 2 & $ & & 1 & @ # & @ # & = = # # @ @ & = % & = = # > % @ - = 3 3 & @ & 1 : 2 "
};
